<?xml version="1.0" encoding="utf-8"?>
<svg xmlns="http://www.w3.org/2000/svg" version="1.1" viewBox="1.992 11.002 94.869 77.548">
  <path d="m44.398 52.836v-12.781h-6.3555v12.781zm-8.0781 0h-8.6367c-0.27734 0-0.52734-0.11328-0.71094-0.29688-0.18359-0.18359-0.29688-0.43359-0.29688-0.71094v-21.543l14.543-11.121 14.543 11.121v21.543c0 0.27734-0.11328 0.52734-0.29688 0.71094-0.18359 0.18359-0.43359 0.29688-0.71094 0.29688h-8.6367v-13.645c0-0.47656-0.38672-0.86328-0.86328-0.86328h-8.0781c-0.47656 0-0.86328 0.38672-0.86328 0.86328v13.645zm55.973 29.055h-46.375c-0.26953 0-0.51562 0.10938-0.69141 0.28906-0.17969 0.17969-0.28906 0.42187-0.28906 0.69141v1.5586c0 0.26953 0.10938 0.51562 0.28906 0.69141 0.17969 0.17969 0.42188 0.28906 0.69141 0.28906h46.375c0.26953 0 0.51562-0.10938 0.69141-0.28906 0.17969-0.17969 0.28906-0.42188 0.28906-0.69141v-1.5586c0-0.26953-0.10938-0.51562-0.28906-0.69141-0.17969-0.17969-0.42578-0.28906-0.69141-0.28906zm-85.328-59.992-0.22266 35.562c0.82031-0.72656 1.9375-1.1875 3.3555-1.1875h3.6211v-37.719l-3.3984-0.003907c-0.91016 0.003907-1.8086 0.32422-2.4453 0.96094-0.54688 0.54688-0.90234 1.3398-0.91016 2.3867zm46.691 44.23c-0.03125 0.039063-0.0625 0.074219-0.097656 0.10938-0.79688 0.89844-1.5195 1.8633-2.1523 2.8906-1.957 3.168-3.0898 6.9062-3.0898 10.914v0.12109h41.578v-0.12109c0-4.0078-1.1289-7.7461-3.0898-10.914-1.7773-2.8789-4.2422-5.293-7.1602-7.0117v7.2461c0 0.47656-0.38672 0.86328-0.86328 0.86328s-0.86328-0.38672-0.86328-0.86328v-11.547c0-0.10938-0.0625-0.21875-0.16016-0.30469-0.13281-0.11328-0.32422-0.18359-0.53906-0.18359h-2.9688v15.332c0 0.47656-0.38672 0.86328-0.86328 0.86328-0.47656 0-0.86328-0.38672-0.86328-0.86328v-19.66c0-0.15625-0.070313-0.30469-0.1875-0.41016-0.12891-0.12109-0.3125-0.19531-0.51563-0.19531h-5.4492c-0.20312 0-0.38672 0.074219-0.51562 0.19531-0.11328 0.10938-0.1875 0.25391-0.1875 0.41016v19.66c0 0.47656-0.38672 0.86328-0.86328 0.86328-0.47656 0-0.86328-0.38672-0.86328-0.86328v-15.332h-2.9688c-0.21875 0-0.41016 0.070313-0.53906 0.18359-0.097656 0.085937-0.16016 0.19141-0.16016 0.30469v11.547c0 0.47656-0.38672 0.86328-0.86328 0.86328-0.47656 0-0.86328-0.38672-0.86328-0.86328v-7.2461c-1.8359 1.082-3.4883 2.4375-4.9062 4.0117zm-24.676-44.754-9.2266 7.0547c-0.62109 0.47656-0.99219 1.1602-1.0898 1.8867-0.097656 0.71875 0.082032 1.4766 0.55469 2.0977 0.47656 0.62109 1.1602 0.99219 1.8867 1.0898 0.71875 0.097656 1.4766-0.082031 2.0977-0.55469l1.7539-1.3398v20.223c0 0.75391 0.30859 1.4336 0.80078 1.9297 0.49219 0.49219 1.1758 0.80078 1.9297 0.80078h27.074c0.75391 0 1.4336-0.30859 1.9297-0.80078 0.49219-0.49219 0.80078-1.1758 0.80078-1.9297v-20.223l1.707 1.3047c0.03125 0.027344 0.066406 0.054688 0.10156 0.074219 0.60938 0.44141 1.3438 0.60938 2.043 0.51562 0.70312-0.09375 1.3672-0.44531 1.8438-1.0312 0.03125-0.035156 0.058594-0.070312 0.085938-0.10938 0.44141-0.60938 0.60937-1.3438 0.51562-2.043-0.097656-0.72266-0.46875-1.4102-1.0898-1.8867l-9.2266-7.0547h15.473v29.297h-2.5586c-0.65625 0-1.2539 0.25781-1.6914 0.66797-0.45312 0.42578-0.73047 1.0117-0.73047 1.6641v2.6055h-2.9688c-0.64062 0-1.2305 0.23438-1.6641 0.60938-0.46875 0.40625-0.75781 0.97266-0.75781 1.6055v2.3281c-2.2422 1.1914-4.2617 2.75-5.9727 4.5977l-42.504-0.007812c-1.5977 0-2.6094-0.85938-3.0508-1.957-0.17578-0.44141-0.26172-0.92578-0.26172-1.4141 0-0.49219 0.089844-0.97656 0.26172-1.4141 0.4375-1.0977 1.4531-1.957 3.0508-1.957h4.4844c0.47656 0 0.86328-0.38672 0.86328-0.86328l-0.003906-35.766zm3.1094-0.21094c-0.027344 0.027344-0.058594 0.050782-0.09375 0.070313l-11.203 8.5664c-0.24219 0.1875-0.39062 0.45703-0.42969 0.73828-0.039062 0.28516 0.03125 0.58594 0.21875 0.83203 0.1875 0.24219 0.45703 0.39062 0.73828 0.42969 0.28516 0.039063 0.58594-0.03125 0.83203-0.21875l18.543-14.18c0.32031-0.24219 0.75781-0.23047 1.0586 0.011718l18.527 14.168c0.24609 0.1875 0.54688 0.25781 0.83203 0.21875 0.28125-0.039062 0.55469-0.18359 0.73828-0.42969 0.1875-0.24609 0.25781-0.54688 0.21875-0.83203-0.039062-0.28125-0.18359-0.55469-0.42969-0.73828l-11.203-8.5664c-0.03125-0.023437-0.0625-0.046875-0.09375-0.070313l-8.3047-6.3516c-0.10937-0.085938-0.23047-0.14453-0.35547-0.18359-0.13281-0.039062-0.26953-0.050781-0.40625-0.042968-0.046875 0.003906-0.09375 0.003906-0.13672 0-0.13672-0.007813-0.26953 0.003906-0.39844 0.042968-0.125 0.035156-0.24609 0.097656-0.35547 0.18359l-8.3047 6.3516zm-27.02 40.547c-0.042968-0.10547-0.066406-0.21875-0.066406-0.33984l0.24609-39.48c0.011719-1.5508 0.56641-2.7539 1.4141-3.6016 0.96484-0.96484 2.3047-1.4492 3.6484-1.4609l4.2695 0.003906c0.47266 0 0.85938 0.38281 0.85938 0.85938h0.003906v1.957h15.789l8.1172-6.207c0.28125-0.21484 0.59375-0.36719 0.91406-0.46484 0.3125-0.09375 0.63672-0.12891 0.95703-0.11328 0.31641-0.015625 0.64062 0.019531 0.95703 0.11328 0.32422 0.097657 0.63672 0.25 0.91406 0.46484l8.1172 6.207h18.59c0.47656 0 0.86328 0.38672 0.86328 0.86328v30.156h1.168c0.65625 0 1.2539 0.25781 1.6914 0.66797 0.45312 0.42578 0.73047 1.0117 0.73047 1.6641v2.6055h2.9688c0.64062 0 1.2305 0.23438 1.6641 0.60938 0.46875 0.40625 0.75781 0.97266 0.75781 1.6055v2.3281c3.5391 1.8828 6.5195 4.6797 8.6211 8.0742 2.125 3.4375 3.3516 7.4883 3.3516 11.816v0.12109h0.67578c0.74609 0 1.4219 0.30469 1.9102 0.79297s0.79297 1.168 0.79297 1.9102v1.5586c0 0.74609-0.30469 1.4219-0.79297 1.9102s-1.168 0.79297-1.9102 0.79297h-46.375c-0.74609 0-1.4219-0.30469-1.9102-0.79297-0.48828-0.48828-0.79297-1.168-0.79297-1.9102v-1.5586c0-0.74609 0.30469-1.4219 0.79297-1.9102 0.48828-0.48828 1.168-0.79297 1.9102-0.79297h0.67578v-0.12109c0-4.3281 1.2266-8.3789 3.3516-11.816 0.37109-0.60547 0.77344-1.1914 1.2031-1.7539l-41.051 0.003906c-2.4141 0-3.9648-1.3359-4.6445-3.0508-0.21875-0.55078-0.34766-1.1328-0.38281-1.7148z" fill-rule="evenodd"/>
</svg>