<svg xmlns="http://www.w3.org/2000/svg" version="1.1" viewBox="-5.0 -10.0 110.0 135.0">
 <path d="m15.176 43.488c-0.003906-1.6562 0-7.9102 0.007813-18.766 0-0.25391 0.039062-0.48828 0.13281-0.70312 0.20312-0.48438 0.42969-0.95312 0.67969-1.3984 0.61328-1.1328 1.4922-2.0117 2.625-2.6484 0.65625-0.36719 1.2852-0.63281 2-0.76953 0.34375-0.066406 0.66406-0.16797 1.0195-0.18359 0.12109-0.003906 20.184 0 60.184 0.015625 0.19141 0 0.36719 0.023438 0.53516 0.0625 0.27734 0.070313 0.46875 0.30859 0.73438 0.36719 0.94922 0.19531 1.793 0.54688 2.5352 1.1758 0.41406 0.34766 0.8125 0.76172 1.2109 1.2344 0.42188 0.50391 0.75391 1.0781 0.98828 1.7227 0.097656 0.25781 0.09375 0.44922 0.0625 0.71875-0.011719 0.10156-0.015625 0.19531-0.011719 0.28906 0.03125 1.125 0.03125 2.2383 0.0625 3.3516 0.042969 1.3047 0.070313 2.6406 0.089844 4.0273 0.015625 1.2852 0.078125 2.7773 0.082031 3.7617 0.015625 1.3945 0.070313 2.7852 0.089844 4.1797 0.03125 2.2969 0.050781 3.4766 0.050781 3.5312 0 0.09375 0 0.18359-0.003906 0.26172-0.003906 0.03125 0.011719 0.050781 0.042969 0.046875 0.59766-0.003906 0.98438 0 1.1562 0.011719 0.066406 0.003906 0.14844 0.015625 0.25781 0.035156 0.007813 0 0.25781 0.0625 0.74609 0.18359 0.62109 0.15625 1.1875 0.39062 1.7148 0.71094 0.64844 0.40234 1.2266 0.86719 1.7383 1.3906 0.74609 0.77344 1.2148 1.6992 1.2148 2.7773v27.609c0 0.70703-0.36719 1.4727-1.168 1.5039-1.3008 0.054688-2.9531 0.11719-4.9531 0.1875-0.29297 0.011719-0.55078-0.09375-0.79688-0.29688-0.09375-0.070312-0.1875-0.14453-0.28125-0.20703-0.16016-0.10938-0.26953-0.19141-0.31641-0.25-0.22656-0.25391-0.27344-0.60547-0.26562-0.9375 0.003906-0.17578 0.003906-3.3633 0.003906-9.5508 0-0.054688-0.027344-0.078125-0.078125-0.078125h-71.625c-0.042969 0-0.0625 0.019531-0.0625 0.0625v9.5977c0 0.28516-0.15625 0.56641-0.29688 0.88672-0.28516 0.67188-0.74609 0.72656-1.4102 0.71875-1.9922-0.039063-3.4805-0.0625-4.4648-0.089844-0.43359-0.011719-0.73438-0.17188-1.0781-0.42578-0.12891-0.09375-0.22266-0.20312-0.28125-0.32812-0.09375-0.19922-0.14062-0.38281-0.14062-0.54688v-28c0-0.13281 0.027344-0.28125 0.078125-0.45312 0.17188-0.55469 0.37109-1.125 0.63672-1.6172 0.55469-1.0547 1.3438-1.9219 2.3516-2.5859 0.55859-0.37109 1.1875-0.55469 1.8828-0.55469 1.0391 0.011719 1.7969 0.011719 2.2734 0.015625 0.03125 0 0.046875-0.015625 0.046875-0.046875zm39.992 0.13281c-0.046875-0.23438-0.089844-0.52344-0.13281-0.94531-0.16016-1.7852-0.16406-3.5938-0.007812-5.4141 0.09375-1.1367 0.29688-2.1719 0.60156-3.1211 0.3125-0.95312 0.80469-1.832 1.4961-2.5586 0.40234-0.41406 0.93359-0.54688 1.4961-0.58203 0.050781-0.003906 0.28125-0.003906 0.69141-0.003906 6.2227 0.015625 12.703 0.046875 19.438 0.09375 0.17188 0 0.34375 0.03125 0.51562 0.097656 0.09375 0.03125 0.20703 0.10938 0.34375 0.23438 0.09375 0.082031 0.26172 0.21484 0.49609 0.38672 0.34375 0.25 0.59375 0.63281 0.79688 1 0.52344 0.92969 0.85156 1.9258 0.98438 2.9844 0.20312 1.6484 0.13281 2.6641 0.125 4.9219-0.007813 0.35938 0 0.72266 0.015625 1.1016 0.019531 0.45312 0.050781 0.82031 0.097656 1.0938 0.042969 0.25 0.074219 0.51562 0.09375 0.80469 0 0.019531 0.011719 0.03125 0.027344 0.03125l4.0664 0.007812c0.03125 0 0.046875-0.015625 0.042969-0.046875-0.027344-0.14453-0.042969-0.28516-0.046875-0.42578-0.085938-4.2969-0.16406-8.0312-0.23047-11.191-0.046875-2.3359-0.097656-4.6992-0.14062-7.3203-0.003906-0.23438 0.082031-0.46094-0.042969-0.73438-0.32812-0.71875-0.78125-1.2969-1.3438-1.8438-0.25-0.24219-0.46875-0.41406-0.65625-0.52344-0.51953-0.30469-1.1406-0.46484-1.7422-0.60156-0.17969-0.039062-0.43359-0.0625-0.76562-0.0625-28.75-0.007812-48.539-0.015625-59.355-0.019531-0.20703 0-0.36328 0.011719-0.46484 0.035156-0.37891 0.10547-0.74219 0.125-1.1289 0.26172-0.49609 0.17578-0.9375 0.39062-1.332 0.64062-0.67969 0.4375-1.2148 1.0039-1.6094 1.7188-0.09375 0.16797-0.25781 0.4375-0.35547 0.67188-0.066406 0.16016 0.003906 0.41016 0.003906 0.59375 0 6.1875-0.003906 12.379-0.003906 18.59 0 0.03125 0.015625 0.046875 0.046875 0.046875l5.4648 0.015625c0.039062 0 0.066406-0.023438 0.066406-0.0625-0.003906-0.44922 0.011719-0.98438-0.011719-1.3867-0.035156-0.98438-0.0625-1.7227-0.066406-2.2227-0.011719-0.40234-0.019531-0.78906-0.035156-1.1641-0.042969-0.89453-0.070313-1.832-0.074219-2.8008-0.003906-0.40625 0.003906-0.78125 0.019531-1.125 0.015625-0.20703 0.078125-0.39453 0.09375-0.60938 0.070313-0.92578 0.54688-2.0273 1.2812-2.668 0.32422-0.28125 0.64844-0.40625 1.0703-0.39844 2.6289 0.046875 5.2852 0.082031 7.957 0.10156 0.46484 0 0.84766 0.007813 1.1602 0.011719 2.1875 0.035156 4.6797 0.066406 7.4688 0.09375 1.8086 0.015625 3.2031 0.042969 4.1797 0.066406 0.32031 0.011719 0.59375 0.13281 0.81641 0.35547 0.19141 0.19141 0.3125 0.33203 0.35938 0.41016 0.36328 0.60547 0.64062 1.1719 0.83203 1.7031 0.089844 0.24219 0.14844 0.49609 0.17969 0.77344 0.019531 0.19141-0.042969 0.39844-0.027344 0.59766 0.25391 3.3789 0.42578 5.6133 0.51172 6.6992 0.054687 0.71875 0.09375 1.2578 0.11328 1.625 0.003906 0.054687 0.03125 0.082031 0.089844 0.082031l6.4922 0.019531c0.027344 0 0.042969-0.015625 0.039063-0.039062zm2.8633-10.324c-0.73828 1.1602-0.92578 2.5742-1.043 3.9492-0.14844 1.8594-0.14844 3.6406 0.015625 5.3438 0.03125 0.34375 0.09375 0.69141 0.18359 1.0508 0 0.011719 0.003906 0.015625 0.019531 0.015625l23.008 0.074219c0.023437 0 0.035156-0.011719 0.03125-0.039063-0.125-0.80469-0.19531-1.625-0.19922-2.4414-0.011719-1.0664 0.035156-2.9375-0.015625-4.5898-0.042969-1.1641-0.26172-2.2266-0.84375-3.2344-0.125-0.21875-0.26562-0.36328-0.5-0.36328-6.7617-0.046875-13.426-0.078125-20-0.097656-0.003906 0-0.078125-0.007813-0.23047-0.027344-0.097656-0.011719-0.1875 0.015625-0.25 0.082031-0.003906 0.007813-0.0625 0.09375-0.17578 0.27734zm-33.301 10.262 21.816 0.066406c0.027344 0 0.042969-0.015625 0.042969-0.046875-0.40234-5.2461-0.61719-7.9883-0.63281-8.2227-0.015625-0.17188 0.015625-0.36719 0.085938-0.57812 0.050781-0.15234 0.019531-0.28125-0.027344-0.41406-0.10547-0.29688-0.23438-0.60938-0.39453-0.92969-0.027344-0.054688-0.070313-0.078125-0.125-0.078125-2.4297-0.042969-4.8555-0.074219-7.2812-0.09375-0.38281 0-0.76562-0.007813-1.168-0.011719-0.83984-0.015625-3.4375-0.046875-7.8086-0.097656-2.0078-0.027344-3.4219-0.042969-4.2383-0.058594-0.074219 0-0.125 0.015625-0.14453 0.058594-0.17188 0.28125-0.29297 0.59766-0.35547 0.95312-0.046875 0.25391-0.1875 0.47656-0.18359 0.74219v0.46484c0 0.51562 0.054688 1.0312 0.074219 1.5469 0.0625 1.2812 0.1875 2.4688 0.23047 3.668 0.039062 1.2188 0.082031 2.0195 0.0625 2.9844 0 0.03125 0.015625 0.046875 0.046875 0.046875zm-14.883 5.1641c0.023438 0.074219 0.027344 0.14844 0.027344 0.22656 0 3.332 0.003906 5.8984 0.003906 7.6875 0 0.046875 0.027344 0.070312 0.074219 0.070312l83.137 0.042969c0.039062 0 0.0625-0.019531 0.0625-0.0625v-7.5625c0-0.050781-0.007813-0.12891-0.015625-0.23047-0.015625-0.19141-0.015625-0.41406-0.074219-0.57031-0.19141-0.57422-0.57422-0.99609-1.0195-1.3984-0.65234-0.57812-1.2812-1.0039-2.1172-1.2188-0.1875-0.046875-0.32031-0.007812-0.48828 0.011719-0.089844 0.011719-0.1875 0.015625-0.29297 0.015625-7.1719-0.027344-14.344-0.050781-21.508-0.082031-0.38672 0-0.77344 0-1.1641-0.007813-10.727-0.015625-21.457-0.046875-32.18-0.097656-0.39062 0-0.77734-0.003906-1.1641-0.003906-6.5938-0.007813-13.188-0.023438-19.781-0.046875-0.59375 0-0.95703-0.03125-1.3672 0.22266-0.96094 0.58984-1.6562 1.4219-2.0938 2.4883-0.070313 0.16797-0.078125 0.33984-0.039063 0.51562zm0.027344 16.102c0 0.039062 0.019531 0.054687 0.058594 0.054687h83.156c0.039062 0 0.0625-0.015625 0.0625-0.054687v-6.0469c0-0.039063-0.015625-0.058594-0.058594-0.058594l-83.156-0.042969c-0.035156 0-0.058594 0.023438-0.058594 0.058594zm79.5 2.0195c-0.042969 0-0.0625 0.019531-0.0625 0.066406l-0.003906 9.2266c0 0.046875 0.019531 0.066406 0.066406 0.066406l3.7148-0.14453c0.039062 0 0.0625-0.023438 0.0625-0.0625v-9.0859c0-0.039062-0.023438-0.0625-0.0625-0.0625zm-79.438 0.015625c-0.035156 0-0.058594 0.019531-0.058594 0.058594l-0.003906 9.1016c0 0.039063 0.019531 0.054688 0.058594 0.058594l3.6133 0.066406c0.035156 0 0.058594-0.015625 0.058594-0.054687l0.003906-9.1719c0-0.039063-0.019531-0.058594-0.058594-0.058594z"/>
<text x="0.0" y="117.5" font-size="5.0" font-weight="bold" font-family="Arbeit Regular, Helvetica, Arial-Unicode, Arial, Sans-serif" fill="#000000">Created by Titik Kornia Sari</text><text x="0.0" y="122.5" font-size="5.0" font-weight="bold" font-family="Arbeit Regular, Helvetica, Arial-Unicode, Arial, Sans-serif" fill="#000000">from Noun Project</text></svg>