<?xml version="1.0" encoding="utf-8"?>
<svg xmlns="http://www.w3.org/2000/svg" viewBox="0.048 0 53.952 60.341" version="1.1" x="0px" y="0px">
  <title>3D GUI - Outline - 011 - Floor and Ceiling</title>
  <desc>Created with Sketch.</desc>
  <g stroke="none" stroke-width="1" fill="none" fill-rule="evenodd">
    <g fill-rule="nonzero" fill="#000000">
      <path d="M0.071,46.35138 C0.0962800124,46.4085348 0.127065269,46.4630922 0.16292,46.51428 C0.193489147,46.5712446 0.229722282,46.6249829 0.27107,46.67468 C0.321701513,46.7237415 0.37743899,46.7672426 0.43733,46.80444 C0.473397218,46.8374315 0.511988088,46.8675532 0.55275,46.89453 L26.55275,59.89453 C26.56154,59.89892 26.57185,59.89697 26.58075,59.90112 C26.844704,60.0329549 27.155296,60.0329549 27.41925,59.90112 C27.42816,59.89697 27.43848,59.89892 27.44725,59.89453 L53.44725,46.89453 C53.4880119,46.8675532 53.5266028,46.8374315 53.56267,46.80444 C53.622561,46.7672426 53.6782985,46.7237415 53.72893,46.67468 C53.8040896,46.5723905 53.8709907,46.4642827 53.929,46.35138 C53.9510865,46.2823365 53.9654772,46.2110641 53.97191,46.13886 C53.9847571,46.0933468 53.9941472,46.046928 54,46 L54,14 C54,13.98938 53.99426,13.98053 53.994,13.97 C53.9887616,13.9186173 53.9795168,13.8677225 53.96635,13.81778 C53.9589381,13.7604129 53.9464593,13.7038151 53.92906,13.64865 C53.92058,13.62619 53.91282,13.60483 53.90281,13.58322 C53.89823,13.57333 53.89945,13.56259 53.89457,13.55276 C53.872847,13.5211073 53.8492026,13.490817 53.82377,13.46206 C53.7961905,13.4138288 53.7644747,13.3680836 53.72898,13.32534 C53.71116,13.30611 53.69376,13.28866 53.67448,13.2709 C53.6320655,13.2357849 53.586712,13.2043794 53.53892,13.17703 C53.5098868,13.1513213 53.4792918,13.1274323 53.44731,13.1055 L27.44731,0.1055 C27.1657136,-0.0351250791 26.8343764,-0.0351250791 26.55278,0.1055 L0.55278,13.1055 C0.520798198,13.1274323 0.490203154,13.1513213 0.46117,13.17703 C0.413378014,13.2043794 0.368024521,13.2357849 0.32561,13.2709 C0.30632,13.28866 0.28893,13.30612 0.27111,13.32534 C0.235615348,13.3680836 0.203899546,13.4138288 0.17632,13.46206 C0.150887395,13.490817 0.127242982,13.5211073 0.10552,13.55276 C0.10064,13.56259 0.10186,13.57333 0.09728,13.58322 C0.08728,13.60483 0.07952,13.62622 0.07103,13.64865 C0.0536306878,13.7038151 0.0411519253,13.7604129 0.03374,13.81778 C0.0205428083,13.8677201 0.0112679149,13.9186149 0.006,13.97 C0.00574,13.98053 0,13.98938 0,14 L0,46 C0.00585001865,46.0469244 0.0152367299,46.0933398 0.02808,46.13885 C0.0345153481,46.2110579 0.0489093468,46.2823337 0.071,46.35138 Z M10.5,10.36816 L16.76367,13.5 L9.5,17.13184 L3.23633,14 L10.5,10.36816 Z M19,6.11816 L25.26367,9.25 L19,12.38184 L12.73633,9.25 L19,6.11816 Z M41.76367,9.5 L36,12.38184 L29.73633,9.25 L35.5,6.36816 L41.76367,9.5 Z M50.76367,14 L45,16.88184 L38.23633,13.5 L44,10.61816 L50.76367,14 Z M27,52.88184 L20.23633,49.5 L27.5,45.86816 L34.26367,49.25 L27,52.88184 Z M26.55273,32.89454 C26.56152,32.89893 26.57183,32.89698 26.58073,32.90113 C26.844684,33.0329649 27.155276,33.0329649 27.41923,32.90113 C27.42814,32.89698 27.43846,32.89893 27.44723,32.89454 L31,31.11816 L33.26367,32.25 L27.5,35.13184 L21.23633,32 L23,31.11816 L26.55273,32.89454 Z M52,39.38184 L33.23633,30 L52,20.61816 L52,39.38184 Z M19,33.11816 L25.26367,36.25 L19,39.38184 L12.73633,36.25 L19,33.11816 Z M27.5,37.36816 L33.76367,40.5 L27.5,43.63184 L21.23633,40.5 L27.5,37.36816 Z M29.73633,36.25 L35.5,33.36816 L41.76367,36.5 L36,39.38184 L29.73633,36.25 Z M2,39.38184 L2,20.61816 L20.76367,30 L2,39.38184 Z M10.5,37.36817 L16.76367,40.5 L9.5,44.13184 L3.23633,41 L10.5,37.36817 Z M19,41.61817 L25.26367,44.75 L18,48.38184 L11.73633,45.25 L19,41.61817 Z M36.5,48.13184 L29.73633,44.75 L36,41.61816 L42.76367,45 L36.5,48.13184 Z M45,43.88184 L38.23633,40.5 L44,37.61816 L50.76367,41 L45,43.88184 Z M52,18.38184 L28,30.38184 L28,27.61816 L52,15.61816 L52,18.38184 Z M36.5,21.13184 L29.73633,17.75 L36,14.61816 L42.76367,18 L36.5,21.13184 Z M34.26367,22.25 L27,25.88184 L20.23633,22.5 L27.5,18.86816 L34.26367,22.25 Z M18,21.38184 L11.73633,18.25 L19,14.61816 L25.26367,17.75 L18,21.38184 Z M26,27.61817 L26,30.38184 L2,18.38184 L2,15.61816 L26,27.61817 Z M2,42.61817 L26,54.61817 L26,57.38184 L2,45.38184 L2,42.61817 Z M28,54.61817 L52,42.61817 L52,45.38184 L28,57.38184 L28,54.61817 Z M33.76367,13.5 L27.5,16.63184 L21.23633,13.5 L27.5,10.36816 L33.76367,13.5 Z M27,2.11816 L33.26367,5.25 L27.5,8.13184 L21.23633,5 L27,2.11816 Z"/>
    </g>
  </g>
</svg>