<svg xmlns="http://www.w3.org/2000/svg" version="1.1" viewBox="-5.0 -10.0 110.0 135.0">
 <path d="m89.551 36.992-39.023-25.051c-0.32031-0.20703-0.73438-0.20703-1.0547 0l-39.023 25.051c-0.28125 0.17969-0.44922 0.48828-0.44922 0.82031v49.426c0 0.53906 0.4375 0.97656 0.97656 0.97656h7.6289c0.53906 0 0.97656-0.4375 0.97656-0.97656v-19.586h7.6484c-0.32031 0.89062-0.38672 1.668-0.38672 1.9609v5.8945c0 1.7695 0.69922 3.3672 1.8164 4.5703v4.0742c0 1.9297 1.5703 3.5039 3.5039 3.5039h4.2148c1.9297 0 3.5039-1.5703 3.5039-3.5039v-1.8984l20.441 0.003906v1.8984c0 1.9297 1.5703 3.5039 3.5039 3.5039h4.2148c1.9297 0 3.5039-1.5703 3.5039-3.5039v-4.3047c0.99609-1.1758 1.6211-2.6797 1.6211-4.3438v-5.8945c0-0.29688-0.070313-1.0742-0.38672-1.9609h7.6445v19.586c0 0.53906 0.4375 0.97656 0.97656 0.97656h7.6289c0.53125 0 0.96875-0.4375 0.96875-0.97656v-49.426c0-0.33203-0.16797-0.64062-0.44922-0.82031zm-51.625 47.164c0 0.85547-0.69531 1.5508-1.5508 1.5508h-4.2148c-0.85547 0-1.5508-0.69531-1.5508-1.5508v-2.625c0.90234 0.44922 1.9102 0.72656 2.9844 0.72656h4.332zm31.668 0c0 0.85547-0.69531 1.5508-1.5508 1.5508h-4.2148c-0.85547 0-1.5508-0.69531-1.5508-1.5508v-1.8984h4.1562c1.1484 0 2.2148-0.31641 3.1602-0.82812zm1.6172-8.6484c0 2.6484-2.1445 4.8008-4.7812 4.8008h-32.836c-2.6484 0-4.8008-2.1523-4.8008-4.8008v-5.8945c0-0.19141 0.0625-1.0859 0.59375-1.9609h41.234c0.53125 0.87891 0.59375 1.7734 0.59375 1.9609zm9.207-9.8047h-9.1523-0.019531-51.664v-2.8672h60.84zm0-4.8203h-60.836v-2.8672h60.84zm0-4.8164h-60.836v-2.8672h60.84zm0-4.8164h-60.836v-2.8672h60.84zm0-4.8164h-60.836v-2.9023h60.84zm7.6289 39.828h-5.6797l0.003906-43.707c0-0.53906-0.4375-0.97656-0.97656-0.97656l-62.789 0.003906c-0.53906 0-0.97656 0.4375-0.97656 0.97656v43.707h-5.6797l0.003906-47.918 38.047-24.426 38.047 24.426zm-53.805-15.551c-2.0742 0-3.7656 1.6875-3.7656 3.7656 0 2.0742 1.6875 3.7617 3.7031 3.7617h0.003906c0.32031 0.019531 0.75781 0.039063 1.25 0.039063 1.3906 0 3.1992-0.15234 3.9609-0.86719 0.30859-0.28906 0.47656-0.66797 0.47656-1.0703 0-2.1055-3.5273-5.6289-5.6289-5.6289zm0 5.5781c-1 0-1.8125-0.8125-1.8125-1.8125s0.8125-1.8125 1.8125-1.8125c0.91797 0 3.2617 2.2695 3.6289 3.4102-0.60547 0.19922-2.1641 0.30078-3.6289 0.21484zm31.715-5.5781c-2.1055 0-5.6289 3.5273-5.6289 5.6289 0 0.39844 0.16797 0.78125 0.47656 1.0703 0.76172 0.71875 2.582 0.86719 3.9453 0.86719 0.48047 0 0.90234-0.019532 1.207-0.039063 2.0742 0 3.7656-1.6875 3.7656-3.7656 0-2.0742-1.6914-3.7617-3.7656-3.7617zm-0.058593 5.5781c-1.4141 0.085938-2.9648-0.019531-3.5703-0.21875 0.36719-1.1406 2.7109-3.4102 3.6289-3.4102 1 0 1.8125 0.8125 1.8125 1.8125 0 1.0039-0.8125 1.8164-1.8711 1.8164zm-11.066-4.1914h-9.4688c-0.53906 0-0.97656 0.4375-0.97656 0.97656v4.2188c0 0.53906 0.4375 0.97656 0.97656 0.97656h9.4688c0.53906 0 0.97656-0.4375 0.97656-0.97656v-4.2188c0-0.53906-0.4375-0.97656-0.97656-0.97656zm-0.97656 4.2188h-7.5156v-2.2695h7.5156z"/>
<text x="0.0" y="117.5" font-size="5.0" font-weight="bold" font-family="Arbeit Regular, Helvetica, Arial-Unicode, Arial, Sans-serif" fill="#000000">Created by NAPISAH</text><text x="0.0" y="122.5" font-size="5.0" font-weight="bold" font-family="Arbeit Regular, Helvetica, Arial-Unicode, Arial, Sans-serif" fill="#000000">from Noun Project</text></svg>