<?xml version="1.0" encoding="utf-8"?>
<svg xmlns="http://www.w3.org/2000/svg" version="1.1" viewBox="4.768 6.831 91.006 86.373">
  <path d="m36.168 9.7969c-0.003907-0.85938-0.70312-1.5547-1.5625-1.5547h-20.094c-0.85938 0-1.5586 0.69531-1.5625 1.5547-0.066407 10.34-6.3398 19.102-6.4023 19.188-0.33594 0.47656-0.38281 1.1016-0.11719 1.6211 0.26562 0.52344 0.79687 0.85156 1.3828 0.85938h15.184v50.465h-3.9258c-2.1484 0.007812-4.1992 0.89844-5.6758 2.457-1.4766 1.5625-2.2461 3.6602-2.1367 5.8086 0 0.41406 0.16406 0.80859 0.45703 1.1016 0.29297 0.29297 0.69141 0.46094 1.1055 0.46094h23.473c0.49219-0.019531 0.94922-0.25781 1.25-0.64453 0.30469-0.38672 0.41797-0.89062 0.3125-1.3711-0.003907-4.3125-3.5-7.8047-7.8125-7.8125h-3.9219v-50.465h15.184c0.58594-0.007813 1.1172-0.33594 1.3789-0.85938 0.26562-0.51953 0.22266-1.1445-0.11719-1.6211-0.0625-0.085937-6.3359-8.8477-6.3984-19.188zm-1.5703 78.836h-20.078c0.51172-2.0977 2.3945-3.5742 4.5508-3.5781h10.973c2.1602 0.003906 4.0391 1.4805 4.5547 3.5781zm-23.945-60.293c3.0547-5.1758 4.8906-10.98 5.3711-16.973h17.07c0.48047 5.9922 2.3164 11.797 5.3711 16.973z"/>
  <path d="m92.188 29.422h-43.723c-0.41406 0-0.8125 0.16406-1.1055 0.45703-0.29297 0.29297-0.45703 0.69141-0.45703 1.1055v53.824c0 0.41406 0.16406 0.8125 0.45703 1.1055 0.29297 0.29297 0.69141 0.45703 1.1055 0.45703h3.8008v3.8242c0 0.41406 0.16406 0.80859 0.45703 1.1055 0.29297 0.29297 0.69141 0.45703 1.1055 0.45703h5.9414c0.41406 0 0.8125-0.16406 1.1055-0.45703 0.29297-0.29688 0.45703-0.69141 0.45703-1.1055v-3.8242h17.988v3.8242c0 0.41406 0.16406 0.80859 0.45703 1.1055 0.29297 0.29297 0.69141 0.45703 1.1055 0.45703h5.9414c0.41406 0 0.80859-0.16406 1.1016-0.45703 0.29297-0.29688 0.46094-0.69141 0.46094-1.1055v-3.8242h3.8008c0.41406 0 0.8125-0.16406 1.1055-0.45703 0.29297-0.29297 0.45703-0.69141 0.45703-1.1055v-53.824c0-0.41406-0.16406-0.8125-0.45703-1.1055-0.29297-0.29297-0.69141-0.45703-1.1055-0.45703zm-33.98 59.211h-2.8164v-2.2617h2.8164zm27.055 0h-2.8164v-2.2617h2.8164zm5.3633-5.3867h-40.598v-50.699h40.598z"/>
  <path d="m54.844 80.543h30.965c0.41406 0 0.8125-0.16406 1.1055-0.45703 0.29297-0.29297 0.45703-0.69141 0.45703-1.1055v-42.164c0-0.41797-0.16406-0.8125-0.45703-1.1055-0.29297-0.29297-0.69141-0.45703-1.1055-0.45703h-30.965c-0.41406 0-0.8125 0.16406-1.1055 0.45703-0.29297 0.29297-0.45703 0.6875-0.45703 1.1055v42.164c0 0.41406 0.16406 0.8125 0.45703 1.1055 0.29297 0.29297 0.69141 0.45703 1.1055 0.45703zm29.402-16.195h-27.84v-12.277h27.84zm-27.84 13.07v-9.9453h27.84v9.9453zm27.84-39.039v10.566h-27.84v-10.566z"/>
  <path d="m67.82 43.977h5.0078c0.86328 0 1.5625-0.69922 1.5625-1.5625 0-0.86328-0.69922-1.5625-1.5625-1.5625h-5.0078c-0.84766 0.019532-1.5312 0.71094-1.5312 1.5625 0 0.85156 0.68359 1.5469 1.5312 1.5625z"/>
  <path d="m67.82 57.359h5.0078c0.86328 0 1.5625-0.69922 1.5625-1.5625s-0.69922-1.5625-1.5625-1.5625h-5.0078c-0.84766 0.015625-1.5312 0.71094-1.5312 1.5625s0.68359 1.5469 1.5312 1.5625z"/>
  <path d="m72.828 69.328h-5.0078c-0.86328 0-1.5625 0.69922-1.5625 1.5625s0.69922 1.5625 1.5625 1.5625h5.0078c0.85156-0.019531 1.5312-0.71094 1.5312-1.5625s-0.67969-1.5469-1.5312-1.5625z"/>
</svg>