<?xml version="1.0" encoding="utf-8"?>
<svg xmlns="http://www.w3.org/2000/svg" version="1.1" viewBox="10.035 3.354 78.111 93.641">
  <path d="m30.129 30.906 5.3125-4.4453c0.39844-0.33203 0.98828-0.28125 1.3203 0.11719s0.28125 0.98828-0.11719 1.3203l-6.0625 5.0781c-0.16797 0.14063-0.38281 0.21875-0.60156 0.21875-0.035157 0-0.070313 0-0.10547-0.003906-0.25391-0.027344-0.48828-0.16016-0.64062-0.36328l-2.4023-3.1484c-0.3125-0.41406-0.23438-1 0.17578-1.3164 0.41406-0.3125 1-0.23438 1.3164 0.17578zm-3.8203-5.3047c-1.3789 0-2.5 1.1211-2.5 2.5v5.3125c0 1.3789 1.1211 2.5 2.5 2.5h5.3125c1.3789 0 2.5-1.1211 2.5-2.5v-0.15234c0-0.51953-0.42188-0.9375-0.9375-0.9375-0.51953 0-0.9375 0.42188-0.9375 0.9375v0.15234c0 0.34375-0.28125 0.625-0.625 0.625h-5.3125c-0.34375 0-0.625-0.28125-0.625-0.625v-5.3125c0-0.34375 0.28125-0.625 0.625-0.625h5.3125c0.085937 0 0.16797 0.015626 0.24609 0.050782 0.47656 0.20703 1.0273-0.007813 1.2344-0.48438 0.20703-0.47656-0.007812-1.0273-0.48437-1.2344-0.31641-0.13672-0.65234-0.20703-1-0.20703zm16.695 3.4219h21.395c0.51953 0 0.9375-0.42188 0.9375-0.9375 0-0.51953-0.42188-0.9375-0.9375-0.9375l-21.395-0.003907c-0.51953 0-0.9375 0.42188-0.9375 0.9375 0 0.51953 0.41797 0.94141 0.9375 0.94141zm0 5.3477h12.785c0.51953 0 0.9375-0.42188 0.9375-0.9375 0-0.51953-0.42187-0.9375-0.9375-0.9375l-12.785-0.003906c-0.51953 0-0.9375 0.42187-0.9375 0.9375 0 0.51953 0.41797 0.94141 0.9375 0.94141zm-7.5664 6.5273-5.3125 4.4453-1.8047-2.3672c-0.3125-0.41016-0.90234-0.49219-1.3164-0.17578-0.41406 0.3125-0.49219 0.90234-0.17578 1.3164l2.4023 3.1484c0.15625 0.20312 0.38672 0.33594 0.64062 0.36328 0.035156 0.003906 0.070312 0.003906 0.10547 0.003906 0.21875 0 0.43359-0.078124 0.60156-0.21875l6.0625-5.0781c0.39844-0.33203 0.44922-0.92578 0.11719-1.3203-0.32812-0.39844-0.92187-0.45312-1.3203-0.11719zm-9.1289 9.457h5.3125c1.3789 0 2.5-1.1211 2.5-2.5v-0.15234c0-0.51953-0.42188-0.9375-0.9375-0.9375-0.51953 0-0.9375 0.42188-0.9375 0.9375v0.15234c0 0.34375-0.28125 0.625-0.625 0.625l-5.3125-0.003907c-0.34375 0-0.625-0.28125-0.625-0.625v-5.3125c0-0.34375 0.28125-0.625 0.625-0.625h5.3125c0.085937 0 0.16797 0.015626 0.24609 0.050782 0.47656 0.20703 1.0273-0.007813 1.2344-0.48438 0.20703-0.47656-0.007812-1.0273-0.48437-1.2344-0.31641-0.14062-0.65234-0.21094-1-0.21094l-5.3086 0.003906c-1.3789 0-2.5 1.1211-2.5 2.5v5.3125c0 1.3828 1.1211 2.5039 2.5 2.5039zm16.695-6.8945h21.395c0.51953 0 0.9375-0.42188 0.9375-0.9375 0-0.51953-0.42188-0.9375-0.9375-0.9375h-21.395c-0.51953 0-0.9375 0.42187-0.9375 0.9375 0 0.51953 0.41797 0.9375 0.9375 0.9375zm0 5.3477h12.785c0.51953 0 0.9375-0.42188 0.9375-0.9375 0-0.51953-0.42187-0.9375-0.9375-0.9375h-12.785c-0.51953 0-0.9375 0.42188-0.9375 0.9375 0 0.51953 0.41797 0.9375 0.9375 0.9375zm-7.5664 6.5273-5.3125 4.4453-1.8047-2.3672c-0.3125-0.41016-0.90234-0.49219-1.3164-0.17578-0.41406 0.3125-0.49219 0.90234-0.17578 1.3164l2.4023 3.1484c0.15625 0.20312 0.38672 0.33594 0.64062 0.36328 0.035156 0.003906 0.070312 0.003906 0.10547 0.003906 0.21875 0 0.43359-0.078124 0.60156-0.21875l6.0625-5.0781c0.39844-0.33203 0.44922-0.92578 0.11719-1.3203-0.32812-0.39844-0.92187-0.44922-1.3203-0.11719zm-9.1289 9.457h5.3125c1.3789 0 2.5-1.1211 2.5-2.5v-0.15234c0-0.51953-0.42188-0.9375-0.9375-0.9375-0.51953 0-0.9375 0.42188-0.9375 0.9375v0.15234c0 0.34375-0.28125 0.625-0.625 0.625h-5.3125c-0.34375 0-0.625-0.28125-0.625-0.625v-5.3125c0-0.34375 0.28125-0.625 0.625-0.625h5.3125c0.085937 0 0.16797 0.015625 0.24609 0.050781 0.47656 0.20703 1.0273-0.007812 1.2344-0.48438 0.20703-0.47656-0.007812-1.0273-0.48437-1.2344-0.31641-0.14062-0.65234-0.21094-1-0.21094l-5.3086 0.003907c-1.3789 0-2.5 1.1211-2.5 2.5v5.3125c0 1.3789 1.1211 2.5 2.5 2.5zm16.695-1.543h8.6211c0.51953 0 0.9375-0.42188 0.9375-0.9375 0-0.51953-0.42188-0.9375-0.9375-0.9375h-8.6211c-0.51953 0-0.9375 0.42188-0.9375 0.9375s0.41797 0.9375 0.9375 0.9375zm0-5.3477h18.801c0.51953 0 0.9375-0.42188 0.9375-0.9375 0-0.51953-0.42188-0.9375-0.9375-0.9375l-18.801-0.003906c-0.51953 0-0.9375 0.42187-0.9375 0.9375 0 0.51953 0.41797 0.94141 0.9375 0.94141zm-7.5664 11.875-5.3125 4.4453-1.8047-2.3672c-0.3125-0.41016-0.90234-0.49219-1.3164-0.17578-0.41406 0.3125-0.49219 0.90234-0.17578 1.3164l2.4023 3.1484c0.15625 0.20312 0.38672 0.33594 0.64062 0.36328 0.035156 0.003907 0.070312 0.003907 0.10547 0.003907 0.21875 0 0.43359-0.078125 0.60156-0.21875l6.0625-5.0781c0.39844-0.33203 0.44922-0.92578 0.11719-1.3242-0.32812-0.39453-0.92187-0.44922-1.3203-0.11328zm-2.2539 5.8633c-0.51953 0-0.9375 0.42188-0.9375 0.9375v0.15234c0 0.34375-0.28125 0.625-0.625 0.625h-5.3125c-0.34375 0-0.625-0.28125-0.625-0.625v-5.3125c0-0.34375 0.28125-0.625 0.625-0.625h5.3125c0.085937 0 0.16797 0.015625 0.24609 0.050781 0.47656 0.20703 1.0273-0.007812 1.2344-0.48438 0.20703-0.47656-0.007812-1.0273-0.48437-1.2344-0.31641-0.14062-0.65234-0.21094-1-0.21094l-5.3086 0.003907c-1.3789 0-2.5 1.1211-2.5 2.5v5.3125c0 1.3789 1.1211 2.5 2.5 2.5h5.3125c1.3789 0 2.5-1.1211 2.5-2.5v-0.15234c0-0.51953-0.42188-0.9375-0.9375-0.9375zm9.8203-3.3008h4.4492c0.51953 0 0.9375-0.42188 0.9375-0.9375 0-0.51953-0.42188-0.9375-0.9375-0.9375h-4.4492c-0.51953 0-0.9375 0.42188-0.9375 0.9375 0 0.51953 0.41797 0.9375 0.9375 0.9375zm0 5.3477h2.9297c0.51953 0 0.9375-0.42188 0.9375-0.9375 0-0.51953-0.42188-0.9375-0.9375-0.9375h-2.9297c-0.51953 0-0.9375 0.42188-0.9375 0.9375 0 0.51953 0.41797 0.9375 0.9375 0.9375zm44.426 1.957c-0.12109 1.0664-0.91016 1.918-1.9609 2.1211-1.1836 0.23047-2.0117 0.78516-2.332 1.5586-0.32031 0.77734-0.125 1.7578 0.55078 2.7578 0.59766 0.88672 0.55469 2.0469-0.10547 2.8867-0.88672 1.1211-1.9023 2.1406-3.0234 3.0312-0.83984 0.66797-2.0039 0.71094-2.8906 0.10938-1-0.67969-1.9844-0.875-2.7578-0.55078-0.77734 0.32422-1.3359 1.1562-1.5625 2.3477-0.20312 1.0547-1.0547 1.8438-2.1211 1.9688-0.70703 0.082031-1.4219 0.125-2.1367 0.125s-1.4297-0.042969-2.1406-0.125c-1.0664-0.125-1.918-0.91406-2.1211-1.9688-0.22656-1.1914-0.78516-2.0234-1.5625-2.3477-0.77734-0.32031-1.7578-0.125-2.7617 0.55078-0.89062 0.60156-2.0508 0.55859-2.8906-0.10938-0.50391-0.39844-0.98047-0.83594-1.4375-1.2852l-36.629 0.003906c-3.9102 0-7.0938-3.1836-7.0938-7.0938l-0.003906-64.77c0-3.9102 3.1836-7.0938 7.0938-7.0938h11.965c0.41406-1.5156 1.7891-2.6367 3.4375-2.6367h3.6406c0.45312-2.8945 2.9648-5.1211 5.9844-5.1211 3.0195 0 5.5312 2.2227 5.9844 5.1211h3.6406c1.6445 0 3.0195 1.1211 3.4375 2.6367h11.965c3.9102 0 7.0938 3.1836 7.0938 7.0938v44.586c0.31641-0.11719 0.64062-0.26953 0.97266-0.49219 0.89063-0.60156 2.0508-0.55859 2.8906 0.10938 1.1211 0.89062 2.1367 1.9102 3.0234 3.0312 0.66406 0.83984 0.70703 2 0.10547 2.8867-0.67578 1-0.87109 1.9805-0.55078 2.7578 0.32031 0.77734 1.1484 1.3281 2.332 1.5586 1.0508 0.20312 1.8398 1.0586 1.9609 2.1211 0.16406 1.4062 0.16406 2.8281 0.003907 4.2305zm-17.832-66.008h-11.824v2.6953h11.645c1.4883 0 2.6953 1.2109 2.6953 2.6953l0.003907 40.453c0.625 0.34375 1.082 0.94141 1.2227 1.6758 0.21875 1.1406 0.74609 1.9414 1.4727 2.293v-44.594c0-2.8789-2.3398-5.2188-5.2148-5.2188zm-36.352 3.3555c0 0.9375 0.76172 1.6992 1.6992 1.6992h19.254c0.9375 0 1.6992-0.76172 1.6992-1.6992v-4.293c0-0.9375-0.76172-1.6992-1.6992-1.6992h-4.5078c-0.51953 0-0.9375-0.42188-0.9375-0.9375 0-2.3047-1.875-4.1797-4.1797-4.1797-2.3047 0-4.1797 1.875-4.1797 4.1797 0 0.51953-0.42188 0.9375-0.9375 0.9375h-4.5078c-0.9375 0-1.6992 0.76172-1.6992 1.6992zm-1.6484 1.2188h-11.875c-0.44922 0-0.81641 0.36719-0.81641 0.81641v64.418c0 0.44922 0.36719 0.81641 0.81641 0.81641h35.43c0.019531-0.33203-0.003906-0.65234-0.125-0.9375-0.32031-0.77734-1.1484-1.3281-2.332-1.5586-1.0508-0.20312-1.8398-1.0586-1.9609-2.1211-0.16016-1.4023-0.16016-2.8281 0-4.2305 0.12109-1.0664 0.91016-1.918 1.9609-2.1211 1.1836-0.23047 2.0117-0.78516 2.332-1.5586 0.32031-0.77734 0.125-1.7578-0.55078-2.7578-0.59766-0.88672-0.55469-2.0469 0.10938-2.8867 0.88672-1.1211 1.9023-2.1406 3.0234-3.0312 0.83984-0.66797 2.0039-0.71094 2.8906-0.10938 1.0039 0.67969 1.9844 0.875 2.7617 0.55078 0.77734-0.32422 1.332-1.1562 1.5625-2.3477 0.20312-1.0547 1.0547-1.8438 2.1211-1.9688 1.0938-0.125 2.1992-0.15234 3.2969-0.085938l-0.003907-40.066c0-0.45312-0.36719-0.81641-0.81641-0.81641l-11.875-0.003906c-0.5 1.3711-1.8047 2.3555-3.3477 2.3555h-19.254c-1.543 0.003906-2.8477-0.98438-3.3477-2.3555zm-12.051 70.629h34.953c-0.55859-0.80859-0.58594-1.8633-0.050781-2.6992h-34.727c-1.4883 0-2.6953-1.2109-2.6953-2.6953v-64.414c0-1.4883 1.2109-2.6953 2.6953-2.6953h11.645v-2.6953l-11.82-0.003906c-2.875 0-5.2188 2.3398-5.2188 5.2188v64.77c0 2.875 2.3398 5.2148 5.2188 5.2148zm66.016-13.211c-0.03125-0.25781-0.19922-0.44141-0.45703-0.49219-1.8203-0.35547-3.1367-1.3086-3.707-2.6836-0.57031-1.3789-0.3125-2.9883 0.73047-4.5273 0.14453-0.21484 0.13672-0.46484-0.023437-0.67188-0.79688-1.0078-1.7109-1.9258-2.7188-2.7227-0.20312-0.16016-0.45703-0.16797-0.67188-0.023438-1.543 1.043-3.1484 1.3047-4.5312 0.73047-1.3828-0.57422-2.3359-1.8945-2.6875-3.7266-0.046875-0.25391-0.23828-0.42969-0.49219-0.45703-1.2773-0.14844-2.5703-0.14844-3.8438 0-0.25391 0.03125-0.44531 0.20312-0.49219 0.45703-0.35156 1.832-1.3047 3.1562-2.6875 3.7266-1.3789 0.57031-2.9883 0.3125-4.5312-0.73047-0.21484-0.14453-0.46875-0.13281-0.67188 0.027344-1.0078 0.79688-1.9219 1.7148-2.7188 2.7227-0.16016 0.20313-0.17188 0.45313-0.023438 0.67188 1.043 1.5391 1.3008 3.1484 0.73047 4.5273-0.57031 1.375-1.8867 2.3281-3.707 2.6836-0.25391 0.050781-0.42578 0.23438-0.45703 0.49219-0.14453 1.2617-0.14453 2.543 0 3.8047 0.03125 0.25781 0.19922 0.44531 0.45703 0.49219 1.8203 0.35547 3.1367 1.3086 3.707 2.6836 0.57031 1.3789 0.3125 2.9883-0.73047 4.5273-0.14453 0.21484-0.13672 0.46484 0.023438 0.67188 0.79688 1.0078 1.7109 1.9258 2.7188 2.7227 0.20312 0.16016 0.45703 0.16797 0.67188 0.027344 1.0078-0.67969 2.043-1.0273 3.0234-1.0273 0.52344 0 1.0273 0.097656 1.5078 0.29688 1.3828 0.57422 2.3359 1.8945 2.6875 3.7266 0.046875 0.25391 0.23828 0.42969 0.49219 0.45703 1.2773 0.14844 2.5703 0.14844 3.8438 0 0.25391-0.03125 0.44531-0.20312 0.49219-0.45703 0.35156-1.832 1.3047-3.1562 2.6875-3.7266 1.3789-0.57031 2.9883-0.3125 4.5312 0.73047 0.21484 0.14453 0.46875 0.13281 0.67188-0.027344 1.0078-0.80078 1.9219-1.7148 2.7188-2.7227 0.16016-0.20312 0.17188-0.45312 0.023437-0.67188-1.043-1.5391-1.3008-3.1484-0.73047-4.5273 0.57031-1.375 1.8867-2.3281 3.707-2.6836 0.25781-0.050782 0.42578-0.23438 0.45703-0.49219 0.14453-1.2656 0.14453-2.5469 0-3.8086zm-7.1211 1.9023c0 5.1602-4.1992 9.3594-9.3594 9.3594-5.1602 0-9.3594-4.1992-9.3594-9.3594s4.1992-9.3594 9.3594-9.3594c5.1602 0 9.3594 4.1992 9.3594 9.3594zm-1.8789 0c0-4.125-3.3555-7.4805-7.4805-7.4805s-7.4805 3.3555-7.4805 7.4805 3.3555 7.4805 7.4805 7.4805 7.4805-3.3555 7.4805-7.4805zm-31.992-65.879c0.87891 0 1.5898-0.71094 1.5898-1.5898s-0.71094-1.5898-1.5898-1.5898c-0.87891 0-1.5898 0.71094-1.5898 1.5898s0.71094 1.5898 1.5898 1.5898z" fill-rule="evenodd"/>
</svg>