<?xml version="1.0" encoding="utf-8"?>
<svg xmlns="http://www.w3.org/2000/svg" version="1.1" x="0px" y="0px" viewBox="2.011 15.692 92.764 65.517" enable-background="new 0 0 96 96">
  <g>
    <path fill-rule="evenodd" clip-rule="evenodd" d="M12.819,35.307c0.097-1.66,0.815-3.162,1.924-4.27   c1.194-1.195,2.842-1.936,4.656-1.936H67.69V18.578c0-0.479,0.184-0.918,0.484-1.252c0.021-0.025,0.042-0.049,0.066-0.072   c0.339-0.34,0.809-0.551,1.325-0.551h21.608c0.479,0,0.918,0.184,1.252,0.484c0.025,0.021,0.05,0.043,0.073,0.066   c0.339,0.338,0.55,0.809,0.55,1.324v58.844c0,0.516-0.211,0.984-0.55,1.324l-0.002-0.002c-0.341,0.342-0.81,0.553-1.324,0.553   H69.566c-0.479,0-0.918-0.184-1.252-0.484c-0.025-0.021-0.049-0.043-0.073-0.066c-0.34-0.34-0.55-0.809-0.55-1.324V70.26H50.812   l1.686,3.123h7.524c0.814,0,1.554,0.332,2.089,0.867s0.868,1.275,0.868,2.09v1.584c0,0.379-0.154,0.723-0.402,0.971l-0.002-0.002   c-0.25,0.25-0.593,0.404-0.968,0.404H27.806c-0.378,0-0.722-0.154-0.97-0.402l0.002-0.002c-0.25-0.25-0.404-0.594-0.404-0.969   V76.34c0-0.814,0.333-1.555,0.868-2.09c0.535-0.535,1.275-0.867,2.089-0.867h7.524l1.686-3.123H19.398   c-1.813,0-3.461-0.74-4.656-1.934c-1.089-1.09-1.801-2.557-1.918-4.182H5.953c-0.827,0-1.577-0.338-2.121-0.881   c-0.543-0.543-0.881-1.295-0.881-2.121v-3.842V42.15v-3.842c0-0.826,0.338-1.578,0.881-2.121c0.544-0.543,1.294-0.881,2.121-0.881   H12.819L12.819,35.307z M23.324,52.125l-3.815-4.461l-0.016-0.02c-0.327-0.387-0.906-0.434-1.293-0.107l-2.233,1.887l-2.653-2.951   c-0.339-0.377-0.919-0.408-1.296-0.068c-0.042,0.037-0.08,0.078-0.113,0.121l-4.746,5.551c-0.164,0.166-0.266,0.393-0.266,0.645   c0,0.508,0.412,0.92,0.919,0.92h14.782c0.029,0,0.059-0.002,0.087-0.004c0.192-0.012,0.383-0.084,0.541-0.219   C23.608,53.088,23.653,52.51,23.324,52.125L23.324,52.125z M20.635,51.803l-1.946-2.275l-2.193,1.852l-0.002,0.002   c-0.377,0.34-0.958,0.309-1.296-0.066l-2.549-2.836l-2.842,3.324H20.635L20.635,51.803z M41.882,50.904   c0.017-0.008,0.034-0.018,0.051-0.027c0.188-0.107,0.344-0.256,0.462-0.432c0.019-0.025,0.037-0.053,0.053-0.08   c0.124-0.215,0.19-0.455,0.19-0.707c0-0.25-0.066-0.49-0.19-0.705h-0.002c-0.123-0.213-0.297-0.389-0.513-0.514l-0.001,0.002   l-0.003-0.002l-3.256-1.879c-0.015-0.01-0.031-0.02-0.047-0.029l-3.307-1.91l0,0.002l-0.003-0.002   c-0.223-0.129-0.462-0.193-0.701-0.193c-0.241,0-0.482,0.064-0.705,0.193c-0.219,0.127-0.394,0.303-0.515,0.514   c-0.124,0.215-0.19,0.453-0.19,0.705v3.818v3.818c0,0.219,0.051,0.43,0.147,0.623c0.013,0.027,0.027,0.057,0.043,0.084   c0.122,0.209,0.296,0.385,0.515,0.512c0.223,0.129,0.464,0.193,0.705,0.193c0.212,0,0.424-0.051,0.625-0.152   c0.027-0.012,0.053-0.025,0.079-0.041l3.307-1.908l-0.001-0.002L41.882,50.904L41.882,50.904z M37.71,51.199l2.668-1.541   l-2.621-1.512c-0.017-0.01-0.034-0.018-0.051-0.027l-2.663-1.539v3.078v3.078l2.663-1.537l0.001,0.002L37.71,51.199L37.71,51.199z    M56.585,46.291c0,0.371,0.3,0.672,0.67,0.672c0.37,0,0.67-0.301,0.67-0.672c0-0.369-0.3-0.67-0.67-0.67   C56.886,45.621,56.585,45.922,56.585,46.291L56.585,46.291z M68.237,52.211c-0.103-0.016-0.203-0.033-0.303-0.051   c-0.118-0.014-0.238-0.021-0.36-0.021c-0.832,0-1.585,0.338-2.13,0.883c-0.545,0.545-0.882,1.297-0.882,2.129   s0.337,1.586,0.882,2.131c0.545,0.545,1.298,0.883,2.13,0.883c0.023,0,0.046,0,0.069,0.002h0.007l0,0l0.037-0.002l0,0l0.039-0.002   l0,0l0.04-0.002v-0.002l0.036-0.002l0,0l0.05-0.004c0.014-0.002,0.027-0.002,0.041-0.004l0.026-0.002v-0.002l0.049-0.006   l0.024-0.002l0,0l0.045-0.008l0,0c0.068-0.01,0.052-0.006,0.053-0.006h0.001l0.014-0.002v-0.002l0.038-0.006l0-0.002l0.048-0.01   l0.017-0.004c0.024-0.006,0.048-0.012,0.073-0.018l0.017-0.004h0.001c0.021-0.006,0.042-0.012,0.064-0.016   c0.034-0.012,0.069-0.021,0.105-0.027l-0.001-0.004l0.046-0.014h0l0.034-0.012l0.024-0.008v-0.002l0.045-0.016   c0.017-0.006,0.033-0.012,0.049-0.016l0.008-0.004l0,0l0.034-0.014l0,0l0.034-0.016l0,0l0.039-0.016   c0.027-0.016,0.056-0.027,0.085-0.039l0.022-0.01l0.021-0.01l0,0l0.032-0.016l0-0.002l0.042-0.021   c0.009-0.006,0.019-0.01,0.028-0.016l0.038-0.02l0.023-0.014l0,0l0.041-0.023l0.021-0.012l0.002-0.002l0,0   c0.053-0.031,0.05-0.029,0.059-0.035h0l0.031-0.02l-0.002-0.004l0.04-0.025c0.012-0.008,0.024-0.016,0.036-0.023l0.024-0.016   l0.012-0.008c0.025-0.023,0.053-0.043,0.081-0.063l0.016-0.01l0-0.002l0.022-0.018c0.025-0.021,0.051-0.043,0.078-0.063   l0.015-0.012l0.006-0.006l0.019-0.016l-0.001-0.002l0.035-0.031l0.014-0.012l0.014-0.014l0.009-0.008l0.018-0.016l0.005-0.006   l0.001-0.002c0.013-0.014,0.027-0.029,0.042-0.043l0.027-0.027l0.007-0.008c0.016-0.018,0.032-0.033,0.05-0.049l0.012-0.014   l0-0.002l0.022-0.023c0.019-0.023,0.039-0.047,0.06-0.068l0.021-0.025l0.009-0.01c0.015-0.021,0.031-0.043,0.048-0.064l0.009-0.012   l0.017-0.02l0.005-0.006c0.008-0.012,0.017-0.023,0.025-0.033l0.01-0.014l0.004-0.004l-0.001-0.002l0.016-0.021   c0.015-0.025,0.031-0.049,0.048-0.072c0.017-0.029,0.036-0.059,0.057-0.086h0l0.018-0.029h0l0.024-0.041l0.006-0.01   c0.012-0.027,0.026-0.053,0.042-0.08l0.005-0.008c0.009-0.02,0.019-0.039,0.03-0.059l0.019-0.039   c0.006-0.014,0.013-0.025,0.02-0.037l0.011-0.023l0.013-0.029h-0.002l0.019-0.045l0.008-0.02c0.009-0.025,0.019-0.053,0.03-0.078   c0.007-0.023,0.016-0.047,0.025-0.068c0.006-0.021,0.014-0.043,0.021-0.064l0.003-0.01c0.007-0.02,0.014-0.037,0.021-0.057   l0.001-0.002h0l0.011-0.037h0l0.01-0.035h0l0.01-0.035l-0.001-0.002l0.009-0.035h0l0.011-0.049   c0.004-0.014,0.008-0.029,0.012-0.045l0.003-0.014h-0.001l0.01-0.049l0.005-0.025l0,0l0.008-0.049l0.004-0.023h0l0.007-0.049   c0.001-0.01,0.003-0.02,0.004-0.027h-0.001l0.006-0.051c0.001-0.012,0.003-0.023,0.005-0.035l0-0.004l0.003-0.023h-0.002   l0.004-0.051c0-0.01,0.001-0.02,0.003-0.029l0-0.01l0.002-0.025l0.001-0.014l0.001-0.02l0.001-0.02l0.001-0.02l0.001-0.018v-0.008   l0-0.031v-0.004l0-0.033h-0.004c0-0.832-0.337-1.584-0.882-2.131C69.308,52.625,68.802,52.338,68.237,52.211L68.237,52.211z    M64.727,51.223c-1.372-0.596-2.387-1.359-3.044-2.203c-0.328-0.422-0.571-0.865-0.728-1.322c-0.642,0.281-1.3,0.592-1.969,0.924   l5.307,2.957C64.43,51.451,64.575,51.332,64.727,51.223L64.727,51.223z M60.792,45.771c0.115-0.678,0.411-1.34,0.889-1.957   c0.656-0.846,1.669-1.611,3.035-2.209c-0.148-0.107-0.29-0.225-0.425-0.348l-6.492,3.617c-0.037,0.025-0.076,0.047-0.117,0.064   l-4.077,2.271c-0.008,0.006-0.016,0.01-0.023,0.014l-3.799,2.117c-0.042,0.027-0.087,0.053-0.134,0.074l-7.765,4.326   c0.293,0.053,0.581,0.09,0.866,0.107c0.915,0.057,1.855-0.078,2.975-0.521c0.983-0.387,2.014-0.863,3.072-1.389   c0.041-0.023,0.084-0.045,0.129-0.064c1.463-0.73,2.977-1.557,4.492-2.381c1.065-0.582,2.129-1.162,3.18-1.711   c0.01-0.006,0.02-0.012,0.03-0.018C58.058,47.02,59.458,46.328,60.792,45.771L60.792,45.771z M67.745,40.693   c0.191-0.037,0.385-0.072,0.584-0.104c0.025-0.004,0.051-0.006,0.076-0.008c0.498-0.143,0.943-0.41,1.299-0.768   c0.545-0.545,0.882-1.297,0.882-2.129l0,0c0-0.832-0.337-1.586-0.882-2.131c-0.545-0.545-1.298-0.883-2.13-0.883   s-1.585,0.338-2.13,0.883c-0.545,0.545-0.882,1.299-0.882,2.131s0.337,1.584,0.882,2.129c0.547,0.549,1.301,0.887,2.13,0.887   v-0.004l0,0l0,0C67.631,40.697,67.688,40.695,67.745,40.693L67.745,40.693z M67.933,42.523c-2.402,0.484-3.999,1.379-4.8,2.412   c-0.361,0.465-0.549,0.951-0.562,1.426c0.002,0.035,0.002,0.068,0,0.102c0.012,0.475,0.2,0.961,0.563,1.43   c0.821,1.055,2.47,1.963,4.96,2.436c1.132,0.121,2.146,0.629,2.909,1.393c0.878,0.877,1.421,2.09,1.421,3.43h-0.003v0.004v0.045   l0,0.018l0,0.033v0.027l-0.001,0.025c0,0.012,0,0.025,0,0.039l-0.001,0.023c0,0.012,0,0.025-0.001,0.039l-0.001,0.02   c0,0.014-0.001,0.027-0.002,0.041l-0.001,0.016c0,0.014-0.001,0.029-0.002,0.045l-0.004,0.049h-0.003l-0.001,0.016l0,0.006   c-0.001,0.018-0.002,0.037-0.004,0.055v0.004c-0.001,0.018-0.003,0.037-0.005,0.057l-0.006,0.049h-0.002l-0.001,0.01l0,0.002   c-0.001,0.02-0.003,0.039-0.006,0.059l-0.007,0.049h-0.002l0,0.006c-0.002,0.021-0.005,0.045-0.009,0.068l-0.009,0.049h-0.001   c-0.002,0.023-0.006,0.045-0.011,0.068l-0.01,0.049h-0.001l-0.002,0.012l-0.01,0.047l0,0c-0.004,0.023-0.008,0.049-0.014,0.072   l-0.012,0.049h0l-0.003,0.01l-0.012,0.047h-0.001l-0.002,0.012l-0.012,0.047h-0.001l-0.003,0.01l-0.013,0.047h0l-0.003,0.012   l-0.013,0.047h0l-0.003,0.01l-0.009,0.029c-0.006,0.029-0.014,0.057-0.023,0.086l-0.015,0.045h-0.003l-0.004,0.012l-0.011,0.029   c-0.002,0.01-0.005,0.018-0.009,0.025l0,0.002c-0.005,0.016-0.01,0.031-0.016,0.047c-0.022,0.063-0.036,0.098-0.041,0.111h-0.001   l-0.003,0.008l-0.004,0.012c-0.005,0.014-0.011,0.029-0.017,0.043l-0.003,0.008c-0.006,0.016-0.012,0.031-0.019,0.049l-0.019,0.043   h-0.002L72.014,57.1l-0.02,0.043h0l-0.003,0.008l-0.001,0.002c-0.007,0.018-0.015,0.033-0.023,0.051v0.002   c-0.007,0.018-0.015,0.035-0.024,0.053l-0.021,0.043h-0.001l-0.001,0.002c-0.009,0.02-0.019,0.041-0.03,0.063l-0.022,0.041h-0.002   c-0.009,0.02-0.02,0.041-0.03,0.061l-0.023,0.041h-0.001l-0.006,0.012l-0.011,0.018c-0.005,0.012-0.011,0.021-0.017,0.031   l-0.024,0.041l0-0.002l-0.007,0.012l-0.024,0.041l0,0l-0.007,0.01l-0.005,0.01c-0.007,0.014-0.015,0.025-0.023,0.039l-0.025,0.039   l0,0l-0.007,0.012l-0.026,0.039h0l-0.007,0.012l-0.001,0.002c-0.009,0.014-0.019,0.029-0.029,0.045l-0.017,0.025   c-0.005,0.008-0.011,0.016-0.017,0.023l-0.027,0.039l-0.001-0.002l-0.006,0.01l-0.007,0.01c-0.008,0.012-0.016,0.021-0.024,0.033   c-0.011,0.018-0.023,0.033-0.036,0.051l-0.006,0.008c-0.009,0.014-0.019,0.027-0.03,0.041l-0.029,0.037l-0.001-0.002l-0.006,0.008   l-0.029,0.039l-0.001-0.002l-0.006,0.008l0,0c-0.012,0.018-0.024,0.033-0.037,0.047l-0.03,0.037H71.28l-0.006,0.008l-0.031,0.035h0   c-0.014,0.018-0.029,0.035-0.045,0.053l-0.031,0.035h0l-0.007,0.008l-0.032,0.035l0,0l-0.007,0.006l-0.028,0.031   c-0.016,0.02-0.033,0.037-0.051,0.057l-0.033,0.033l-0.002-0.002l-0.009,0.008l-0.023,0.023l-0.018,0.018l-0.018,0.018   c-0.007,0.008-0.015,0.016-0.023,0.021l-0.017,0.018c-0.008,0.008-0.016,0.016-0.025,0.023l-0.015,0.014   c-0.009,0.008-0.018,0.016-0.027,0.025l-0.035,0.031l-0.001-0.002l-0.01,0.01l-0.007,0.006c-0.012,0.01-0.023,0.021-0.036,0.031   l-0.006,0.006c-0.012,0.012-0.024,0.021-0.037,0.033l-0.036,0.029h-0.001l-0.01,0.008h-0.001c-0.013,0.014-0.027,0.025-0.042,0.037   l-0.037,0.029l0-0.002l-0.006,0.006c-0.016,0.014-0.032,0.027-0.048,0.039l-0.038,0.029l-0.001-0.002l-0.006,0.006l-0.038,0.027h0   h-0.001c-0.017,0.014-0.035,0.029-0.054,0.041l-0.039,0.027h0c-0.018,0.016-0.037,0.029-0.057,0.041l-0.04,0.027l-0.001-0.002   l-0.009,0.006l-0.04,0.025l0-0.002l-0.006,0.006c-0.072,0.045-0.086,0.055-0.095,0.061h0l-0.007,0.004l-0.01,0.006   c-0.014,0.008-0.027,0.018-0.042,0.025l-0.041,0.023h0l-0.007,0.004l-0.004,0.002c-0.016,0.01-0.032,0.02-0.048,0.029l-0.042,0.021   l0,0c-0.02,0.012-0.04,0.023-0.06,0.033l-0.042,0.023l-0.001-0.002l-0.01,0.004l-0.042,0.021h-0.001   c-0.021,0.012-0.042,0.021-0.063,0.033l-0.043,0.02h0l-0.01,0.004l-0.021,0.01l-0.013,0.006c-0.023,0.012-0.047,0.023-0.071,0.035   l-0.044,0.018h0l-0.01,0.004l-0.044,0.02l0-0.002l-0.01,0.004l-0.044,0.018h0l-0.01,0.004l-0.033,0.014   c-0.025,0.012-0.052,0.021-0.079,0.031l-0.045,0.018l-0.001-0.002c-0.021,0.008-0.044,0.018-0.066,0.023l-0.031,0.012   c-0.009,0.002-0.017,0.006-0.026,0.008l-0.046,0.016l-0.001-0.004l-0.01,0.004l-0.023,0.006c-0.011,0.004-0.023,0.008-0.034,0.012   l-0.016,0.004c-0.014,0.004-0.028,0.008-0.042,0.012l-0.013,0.004c-0.015,0.006-0.029,0.01-0.044,0.014l-0.047,0.012l0,0h0   c-0.022,0.008-0.045,0.014-0.069,0.02l-0.047,0.012l-0.001-0.004l-0.012,0.004c-0.019,0.004-0.037,0.01-0.056,0.014   c-0.02,0.004-0.041,0.01-0.063,0.014l-0.048,0.01l0-0.002l-0.011,0.002l-0.048,0.008l0,0h-0.003l-0.056,0.012   c-0.013,0.002-0.026,0.006-0.039,0.008c-0.009,0.002-0.013,0.002-0.027,0.006l0-0.002l-0.003,0.002l-0.049,0.006l0-0.002h-0.001   c-0.024,0.006-0.048,0.01-0.073,0.012l-0.05,0.006l0,0h-0.011l-0.049,0.006l0,0c-0.023,0.004-0.047,0.006-0.071,0.008l-0.05,0.004   l0,0h-0.015l-0.05,0.004l0,0h-0.011l-0.05,0.004v-0.002l-0.011,0.002l-0.05,0.002l0,0H67.75L67.7,59.998v-0.002l-0.007,0.002   h-0.031c-0.029,0.002-0.059,0.004-0.089,0.004c-1.34,0-2.553-0.543-3.43-1.42c-0.878-0.879-1.421-2.092-1.421-3.432   c0-0.746,0.169-1.455,0.471-2.086l-6.166-3.438c-0.903,0.479-1.817,0.977-2.731,1.475c-1.379,0.752-2.758,1.504-4.104,2.189v4.01   v3.842c0,0.826-0.337,1.578-0.881,2.121c-0.543,0.543-1.294,0.881-2.121,0.881H14.67c0.112,1.117,0.617,2.125,1.373,2.881   c0.861,0.861,2.049,1.396,3.355,1.396H68.61h1.406c1.306,0,2.494-0.535,3.355-1.396s1.396-2.049,1.396-3.355V35.691   c0-1.305-0.534-2.492-1.396-3.355c-0.862-0.861-2.049-1.396-3.355-1.396H68.61H19.398c-1.306,0-2.494,0.535-3.355,1.396   c-0.776,0.777-1.287,1.816-1.381,2.971h32.527c1.651,0,3.002,1.352,3.002,3.002v1.197c0.947,0.455,2.008,0.979,3.114,1.533   c1.45,0.727,2.794,1.414,3.977,2.027l5.911-3.295c-0.302-0.631-0.471-1.34-0.471-2.086c0-1.34,0.543-2.553,1.421-3.432   c0.877-0.877,2.09-1.42,3.43-1.42c1.339,0,2.552,0.543,3.43,1.42c0.878,0.879,1.421,2.092,1.421,3.432l0,0   c0,1.338-0.543,2.551-1.421,3.43C70.205,41.914,69.128,42.436,67.933,42.523L67.933,42.523z M39.049,53.225l9.303-5.184V43.07   H27.49v13.311h20.862v-2.189c-0.666,0.311-1.32,0.596-1.957,0.848c-1.391,0.549-2.578,0.715-3.751,0.643   c-1.145-0.072-2.229-0.367-3.465-0.756c-0.484-0.15-0.754-0.666-0.604-1.148C38.653,53.525,38.83,53.332,39.049,53.225   L39.049,53.225z M50.191,47.016l1.075-0.598l-1.075-0.6V47.016L50.191,47.016z M53.148,45.369l2.208-1.23   c-1.004-0.518-1.983-1.018-2.87-1.461c-0.767-0.385-1.538-0.768-2.295-1.135v0.607v1.57L53.148,45.369L53.148,45.369z    M70.238,56.559L70.238,56.559L70.238,56.559L70.238,56.559z M41.801,59.473c-0.18,0-0.327,0.146-0.327,0.326v0.93   c0,0.18,0.146,0.326,0.327,0.326h3.151c0.18,0,0.327-0.146,0.327-0.326v-0.93c0-0.18-0.147-0.326-0.327-0.326H41.801L41.801,59.473   z M33.398,59.473c-0.18,0-0.327,0.146-0.327,0.326v0.93c0,0.18,0.147,0.326,0.327,0.326h3.151c0.18,0,0.327-0.146,0.327-0.326   v-0.93c0-0.18-0.147-0.326-0.327-0.326H33.398L33.398,59.473z M24.995,59.473c-0.18,0-0.327,0.146-0.327,0.326v0.93   c0,0.18,0.147,0.326,0.327,0.326h3.151c0.18,0,0.327-0.146,0.327-0.326v-0.93c0-0.18-0.147-0.326-0.327-0.326H24.995L24.995,59.473   z M16.592,59.473c-0.18,0-0.327,0.146-0.327,0.326v0.93c0,0.18,0.147,0.326,0.327,0.326h3.151c0.18,0,0.327-0.146,0.327-0.326   v-0.93c0-0.18-0.146-0.326-0.327-0.326H16.592L16.592,59.473z M8.189,59.473c-0.18,0-0.327,0.146-0.327,0.326v0.93   c0,0.18,0.147,0.326,0.327,0.326h3.151c0.18,0,0.326-0.146,0.326-0.326v-0.93c0-0.18-0.146-0.326-0.326-0.326H8.189L8.189,59.473z    M41.801,38.396c-0.18,0-0.327,0.146-0.327,0.328v0.928c0,0.18,0.146,0.326,0.327,0.326h3.151c0.18,0,0.327-0.146,0.327-0.326   v-0.928c0-0.182-0.147-0.328-0.327-0.328H41.801L41.801,38.396z M33.398,38.396c-0.18,0-0.327,0.146-0.327,0.328v0.928   c0,0.18,0.147,0.326,0.327,0.326h3.151c0.18,0,0.327-0.146,0.327-0.326v-0.928c0-0.182-0.147-0.328-0.327-0.328H33.398   L33.398,38.396z M24.996,38.396c-0.18,0-0.327,0.148-0.327,0.328v0.928c0,0.18,0.147,0.326,0.327,0.326h3.15   c0.18,0,0.327-0.146,0.327-0.326v-0.928c0-0.18-0.147-0.328-0.327-0.328H24.996L24.996,38.396z M16.592,38.396   c-0.18,0-0.327,0.148-0.327,0.328v0.928c0,0.18,0.147,0.326,0.327,0.326h3.15c0.18,0,0.327-0.146,0.327-0.326v-0.928   c0-0.18-0.147-0.328-0.327-0.328H16.592L16.592,38.396z M8.189,38.396c-0.18,0-0.327,0.148-0.327,0.328v0.928   c0,0.18,0.147,0.326,0.327,0.326h3.151c0.18,0,0.327-0.146,0.327-0.326v-0.928c0-0.18-0.146-0.328-0.327-0.328H8.189L8.189,38.396z    M48.352,58.221H26.571H4.79v2.922c0,0.318,0.131,0.609,0.342,0.82c0.211,0.213,0.502,0.344,0.821,0.344h41.236   c0.319,0,0.609-0.131,0.821-0.344c0.211-0.211,0.342-0.502,0.342-0.82V58.221L48.352,58.221z M4.79,56.381h20.861V43.07H4.79   V56.381L4.79,56.381z M4.79,41.23h43.563v-2.922c0-0.641-0.523-1.164-1.163-1.164H5.953c-0.319,0-0.61,0.133-0.821,0.344   C4.92,37.699,4.79,37.99,4.79,38.309V41.23L4.79,41.23z M80.37,70.047c-0.297,0-0.566,0.119-0.761,0.314s-0.315,0.465-0.315,0.762   s0.12,0.566,0.315,0.76c0.195,0.195,0.464,0.316,0.761,0.316s0.566-0.121,0.761-0.316c0.194-0.193,0.314-0.463,0.314-0.76   s-0.12-0.566-0.314-0.762C80.937,70.166,80.667,70.047,80.37,70.047L80.37,70.047z M78.309,69.063   c-0.528,0.527-0.854,1.256-0.854,2.061s0.326,1.533,0.854,2.061c0.527,0.527,1.256,0.854,2.061,0.854s1.533-0.326,2.061-0.854   c0.527-0.527,0.854-1.256,0.854-2.061s-0.327-1.533-0.854-2.061c-0.528-0.529-1.256-0.855-2.061-0.855S78.836,68.533,78.309,69.063   L78.309,69.063z M86.664,25.207H74.077c-0.508,0-0.919,0.412-0.919,0.92s0.412,0.918,0.919,0.918h12.587   c0.508,0,0.919-0.41,0.919-0.918S87.171,25.207,86.664,25.207L86.664,25.207z M86.664,21.365H74.077   c-0.508,0-0.919,0.412-0.919,0.92s0.412,0.918,0.919,0.918h12.587c0.508,0,0.919-0.41,0.919-0.918S87.171,21.365,86.664,21.365   L86.664,21.365z M69.529,29.102h0.486c1.813,0,3.461,0.74,4.655,1.936c1.194,1.193,1.935,2.842,1.935,4.654V63.67   c0,1.813-0.741,3.461-1.935,4.656c-1.194,1.193-2.842,1.934-4.655,1.934h-0.486v7.162c0,0.008,0.004,0.018,0.011,0.025l0.009,0.008   c0.004,0.002,0.01,0.002,0.017,0.002h21.608c0.012,0,0.021-0.002,0.025-0.008l0.002-0.002h-0.002   c0.007-0.008,0.012-0.018,0.012-0.025V18.578c0-0.008-0.004-0.018-0.012-0.025l-0.008-0.008c-0.005-0.002-0.01-0.004-0.017-0.004   H69.566c-0.009,0-0.018,0.006-0.025,0.012l-0.009,0.01c-0.002,0.004-0.002,0.01-0.002,0.016V29.102L69.529,29.102z M53.491,75.221   h-1.539h-7.246h-7.245h-1.54h-6.531c-0.307,0-0.586,0.127-0.789,0.33s-0.329,0.482-0.329,0.789v1.117h32.868V76.34   c0-0.307-0.126-0.586-0.329-0.789c-0.204-0.203-0.483-0.33-0.79-0.33H53.491L53.491,75.221z M48.727,70.26h-8.04l-1.686,3.123   h5.706h5.706L48.727,70.26z"/>
  </g>
</svg>