<?xml version="1.0" encoding="utf-8"?>
<svg xmlns="http://www.w3.org/2000/svg" version="1.1" viewBox="4.851 1.82 90.339 96.222">
  <path d="m34.586 52.516 37.953-17.273c6.0859-2.7695 2.8281-11.602-3.1094-10.516-4.7812-9.2578-13.656-13.18-22.859-11.621-11-17.75-40.039-10.602-40.039 11.719v70.488c0 0.86328 0.69922 1.5625 1.5625 1.5625 0.85938 0 1.5625-0.69922 1.5625-1.5625v-70.492c0-18.68 23.984-25 33.688-10.938-2.0391 0.64063-3.9844 1.5312-5.8008 2.6562-7.1055-8.1406-21.707-3.6367-21.707 8.2812v70.492c0 0.86328 0.70312 1.5625 1.5625 1.5625 0.86328 0 1.5625-0.69922 1.5625-1.5625v-70.492c0-8.9609 10.859-12.109 16.031-6.4648-7.1953 5.8594-10.18 15.133-6.2969 24.914-4.6836 3.7383-0.25391 12.043 5.8906 9.2461zm-3.2812-7.2031c0.37891-0.17188 0.67187-0.48438 0.82031-0.87109 0.14844-0.39062 0.13281-0.82031-0.039062-1.1992-10.352-22.75 23.133-38.523 34.414-17.383l-30.781 14.008c-0.76953 0.36719-1.1055 1.2852-0.75391 2.0625 0.35547 0.77734 1.2695 1.125 2.0508 0.78125l32.242-14.672c2.9688-1.3203 4.875 3.0469 1.9844 4.3594l-37.953 17.273c-2.9141 1.3281-4.8984-3.0312-1.9844-4.3594z"/>
  <path d="m58.82 54.379-1.4531-3.8359c-0.30469-0.80859-1.207-1.2188-2.0156-0.91016-0.80859 0.30469-1.2188 1.207-0.91406 2.0156l1.4531 3.8359c0.30859 0.80859 1.2109 1.2188 2.0195 0.91406 0.80859-0.30859 1.2188-1.2109 0.91016-2.0195z"/>
  <path d="m69.895 83.617-2.7656-7.3125h-0.003906c-0.30469-0.80859-1.207-1.2188-2.0156-0.91016-0.80859 0.30469-1.2188 1.207-0.91406 2.0195l2.7656 7.3086h0.003906c0.30469 0.80859 1.207 1.2148 2.0195 0.91016 0.80859-0.30469 1.2148-1.207 0.91016-2.0156z"/>
  <path d="m64.359 68.996-2.7695-7.3086c-0.30469-0.80859-1.207-1.2188-2.0195-0.91406-0.80859 0.30859-1.2148 1.2109-0.91016 2.0195l2.7656 7.3125 0.003907-0.003907c0.30469 0.8125 1.207 1.2188 2.0156 0.91406 0.80859-0.30859 1.2188-1.2109 0.91406-2.0195z"/>
  <path d="m72.656 90.922c-0.30469-0.80859-1.207-1.2148-2.0156-0.91016-0.8125 0.30469-1.2188 1.207-0.91406 2.0195l1.4531 3.8359c0.30469 0.80859 1.207 1.2148 2.0156 0.91016 0.8125-0.30469 1.2188-1.207 0.91406-2.0195z"/>
  <path d="m47.09 59.906-0.66797-4.0469c-0.058594-0.41797-0.28516-0.79297-0.625-1.043-0.33594-0.25-0.76562-0.35156-1.1797-0.28516-0.41406 0.070312-0.78516 0.30469-1.0273 0.64844-0.24219 0.34766-0.33203 0.77734-0.25391 1.1875l0.66797 4.0469v0.003907c0.14453 0.85156 0.94531 1.4258 1.7969 1.2852 0.85547-0.14062 1.4297-0.94531 1.2891-1.7969z"/>
  <path d="m50.273 79.172-1.5938-9.6406c-0.058594-0.41797-0.28125-0.79297-0.62109-1.043s-0.76562-0.35156-1.1836-0.28516c-0.41406 0.070313-0.78516 0.30469-1.0234 0.64844-0.24219 0.34766-0.33203 0.77734-0.25391 1.1875l1.5898 9.6484c0.14062 0.85156 0.94531 1.4297 1.7969 1.2891 0.85156-0.14062 1.4258-0.94531 1.2891-1.7969z"/>
  <path d="m51.859 88.797c-0.14062-0.85156-0.94141-1.4258-1.7969-1.2852-0.85156 0.14062-1.4258 0.94531-1.2852 1.7969l0.66797 4.0508c0.14453 0.85547 0.94922 1.4297 1.8047 1.2891 0.85547-0.14063 1.4297-0.94922 1.2891-1.8047z"/>
  <path d="m34.375 59.375c-0.85938-0.046875-1.5977 0.61328-1.6445 1.4766l-0.42188 7.8047 0.003906-0.003906c-0.046875 0.86328 0.61328 1.6016 1.4766 1.6445 0.86328 0.046875 1.6016-0.61328 1.6484-1.4766l0.42188-7.8008c0.019531-0.41406-0.125-0.82031-0.40234-1.1289-0.27734-0.30859-0.66797-0.49609-1.082-0.51562z"/>
  <path d="m33.43 76.719c-0.41016-0.019531-0.81641 0.12109-1.125 0.39844-0.30859 0.27734-0.49609 0.66797-0.51563 1.0781l-0.42187 7.8008v0.003906c-0.046876 0.85938 0.61328 1.5977 1.4766 1.6445s1.6016-0.61719 1.6484-1.4805l0.42187-7.8008v0.003907c0.019532-0.41797-0.125-0.82422-0.40234-1.1328-0.27734-0.30859-0.66406-0.49219-1.082-0.51562z"/>
  <path d="m66.375 44.641c-0.70703 0.49609-0.88281 1.4688-0.39062 2.1758l2.3281 3.3789c0.23438 0.34375 0.59375 0.57813 1.0039 0.65234 0.40625 0.078125 0.82812-0.015625 1.1719-0.25 0.33984-0.23828 0.57422-0.59766 0.64844-1.0078s-0.019531-0.83203-0.25391-1.1719l-2.3281-3.3789c-0.23438-0.34375-0.59766-0.57812-1.0078-0.65234s-0.83203 0.019531-1.1719 0.25391z"/>
  <path d="m76.633 56.727c-0.23828-0.34375-0.59766-0.57812-1.0078-0.65234-0.40625-0.078125-0.82812 0.015625-1.1719 0.25-0.33984 0.23828-0.57422 0.59766-0.64844 1.0078-0.074219 0.41016 0.019531 0.83203 0.25781 1.1719l5.75 8.3125h-0.003906c0.23438 0.34375 0.59766 0.57812 1.0039 0.65234 0.41016 0.078125 0.83203-0.015625 1.1719-0.25 0.34375-0.23828 0.57812-0.59766 0.65234-1.0078 0.070312-0.41016-0.019531-0.83203-0.25781-1.1719z"/>
  <path d="m88.125 73.352c-0.48828-0.71094-1.4648-0.88672-2.1719-0.39453-0.71094 0.49219-0.88672 1.4648-0.39844 2.1758l2.3359 3.3711c0.23438 0.34375 0.59766 0.57812 1.0039 0.65234 0.41016 0.078125 0.83203-0.015625 1.1719-0.25 0.34375-0.23828 0.57812-0.59766 0.65234-1.0078 0.070312-0.41016-0.019531-0.83203-0.25781-1.1719z"/>
  <path d="m83.359 41.914-3.1523-2.625c-0.66406-0.53516-1.6367-0.44141-2.1836 0.21875-0.54297 0.65625-0.46094 1.6289 0.1875 2.1836l3.1523 2.625h-0.003906c0.66406 0.55078 1.6523 0.46094 2.2031-0.19922 0.55078-0.66406 0.46094-1.6523-0.20312-2.2031z"/>
  <path d="m92.902 49.852-3.1523-2.625v0.003907c-0.66406-0.55078-1.6484-0.46094-2.1992 0.19922-0.55469 0.66406-0.46484 1.6523 0.19922 2.2031l3.1523 2.625h0.003906c0.66406 0.53516 1.6328 0.4375 2.1797-0.21875 0.54687-0.65625 0.46484-1.6289-0.18359-2.1875z"/>
</svg>