<svg xmlns="http://www.w3.org/2000/svg" version="1.1" viewBox="-5.0 -10.0 110.0 135.0">
 <path d="m36.449 63.25h6.8711c0.95703 0 1.7383-0.78125 1.7383-1.7383v-6.8711c0-0.95703-0.78125-1.7383-1.7383-1.7383h-6.8711c-0.95703 0-1.7383 0.78125-1.7383 1.7383v6.8711c0 0.96094 0.77734 1.7383 1.7383 1.7383zm0.60938-7.9961h5.6484v5.6484h-5.6484z"/>
 <path d="m76.504 44.871c0.75 0.55078 1.6211 0.81641 2.4883 0.81641 1.2891 0 2.5664-0.58984 3.3906-1.707l0.054688-0.074219c1.375-1.8672 0.97656-4.5039-0.89062-5.8789l-22.887-16.867c-0.83984-0.62109-1.9688-0.62109-2.8086 0l-17.008 12.535-5.1289-3.7812c-0.76562-0.56641-1.7969-0.56641-2.5625 0l-18.871 13.91c-1.6289 1.2031-1.9805 3.5039-0.77734 5.1328l0.046875 0.0625c0.58203 0.78906 1.4336 1.3047 2.4062 1.4492 0.1875 0.027344 0.375 0.042969 0.55859 0.042969 0.64844 0 1.2773-0.17188 1.8398-0.5v20.629c0 0.0625 0.003906 0.125 0.007812 0.1875h-4.3984c-0.64844 0-1.1758 0.52734-1.1758 1.1758 0 0.64844 0.52734 1.1758 1.1758 1.1758h40.93 0.003907 29.176c0.64844 0 1.1758-0.52734 1.1758-1.1758 0-0.64844-0.52734-1.1758-1.1758-1.1758h-5.6133c0.027343-0.15625 0.039062-0.31641 0.039062-0.47656zm-45.246 25.957h-7.6445v-15.574h7.6445zm14.902-0.1875c0 0.10156-0.085937 0.1875-0.1875 0.1875h-12.363v-16.074c0-1.0195-0.82812-1.8477-1.8477-1.8477l-8.6523-0.003906c-1.0195 0-1.8477 0.82812-1.8477 1.8477v16.074h-2.3711c-0.10156 0-0.1875-0.085938-0.1875-0.1875v-22.328l13.727-10.117 13.73 10.117zm-13.84-32.535zm15.719 8.668-14.324-10.559c-0.76562-0.56641-1.7969-0.56641-2.5625 0l-14.324 10.559-1.5352 1.1328c-0.28125 0.20703-0.63281 0.29297-0.98047 0.24219-0.35156-0.054688-0.66016-0.23828-0.86719-0.51953l-0.046874-0.0625c-0.43359-0.58594-0.30859-1.4141 0.28125-1.8477l18.758-13.824 5.7031 4.2031c0.007813 0.003906 0.015625 0.011719 0.023437 0.015625l5.1602 3.8008c0.007812 0.003907 0.015625 0.011719 0.023437 0.015626l7.8477 5.7852c0.58594 0.43359 0.71094 1.2617 0.28125 1.8477l-0.042968 0.058594c-0.43359 0.58594-1.2617 0.71094-1.8477 0.28125l-1.5352-1.1328-0.011719 0.003907zm26.113 23.574c0 0.25781-0.21875 0.47656-0.47656 0.47656h-20.777-0.003907-4.3945c0.003906-0.0625 0.007812-0.125 0.007812-0.1875v-20.629c1.5977 0.93359 3.6836 0.52734 4.8047-0.99219l0.042969-0.058594c1.1992-1.6289 0.85156-3.9336-0.77734-5.1328l-6.5742-4.8477 11.238-8.2852c0.007812-0.003906 0.007812-0.007812 0.011718-0.007812s0.007813 0.003906 0.011719 0.007812l16.887 12.445zm1.8789-28.742h-0.003906l-17.367-12.805c-0.83984-0.62109-1.9688-0.62109-2.8086 0l-11.828 8.7148-3.1992-2.3594 16.422-12.102c0.007812-0.003907 0.011718-0.007813 0.011718-0.007813 0.003907 0 0.007813 0.003906 0.011719 0.007813l22.879 16.867c0.82422 0.60547 1 1.7695 0.39062 2.5898l-0.054687 0.074219c-0.60547 0.82422-1.7695 1-2.5938 0.39062z"/>
 <path d="m82.078 74.262c-0.64844 0-1.1758 0.52734-1.1758 1.1758v1.5156h-67.762v-1.5156c0-0.64844-0.52734-1.1758-1.1758-1.1758-0.64844 0-1.1758 0.52734-1.1758 1.1758v2.6914c0 0.64844 0.52734 1.1758 1.1758 1.1758h70.113c0.64844 0 1.1758-0.52734 1.1758-1.1758v-2.6914c0-0.64844-0.52734-1.1758-1.1758-1.1758z"/>
 <path d="m88.035 20.695h-2.6914c-0.64844 0-1.1758 0.52734-1.1758 1.1758 0 0.64844 0.52734 1.1758 1.1758 1.1758h1.5156v47.781h-1.5156c-0.64844 0-1.1758 0.52734-1.1758 1.1758 0 0.64844 0.52734 1.1758 1.1758 1.1758h2.6914c0.64844 0 1.1758-0.52734 1.1758-1.1758v-50.133c0-0.64844-0.52734-1.1758-1.1758-1.1758z"/>
<text x="0.0" y="117.5" font-size="5.0" font-weight="bold" font-family="Arbeit Regular, Helvetica, Arial-Unicode, Arial, Sans-serif" fill="#000000">Created by Adi Waluyo Noto Carito</text><text x="0.0" y="122.5" font-size="5.0" font-weight="bold" font-family="Arbeit Regular, Helvetica, Arial-Unicode, Arial, Sans-serif" fill="#000000">from Noun Project</text></svg>