<?xml version="1.0" encoding="utf-8"?>
<svg xmlns="http://www.w3.org/2000/svg" version="1.1" viewBox="10.313 19.666 80.567 62.074">
  <path d="m36.449 63.25h6.8711c0.95703 0 1.7383-0.78125 1.7383-1.7383v-6.8711c0-0.95703-0.78125-1.7383-1.7383-1.7383h-6.8711c-0.95703 0-1.7383 0.78125-1.7383 1.7383v6.8711c0 0.96094 0.77734 1.7383 1.7383 1.7383zm0.60938-7.9961h5.6484v5.6484h-5.6484z"/>
  <path d="M 76.736 44.842 C 77.486 45.393 78.357 45.658 79.224 45.658 C 80.513 45.658 81.791 45.068 82.615 43.951 L 82.67 43.877 C 84.045 42.01 83.646 39.373 81.779 37.998 L 58.892 21.131 C 58.052 20.51 56.923 20.51 56.083 21.131 L 39.075 33.666 L 33.946 29.885 C 33.181 29.319 32.15 29.319 31.384 29.885 L 12.513 43.795 C 10.884 44.998 10.532 47.299 11.736 48.928 L 11.782 48.99 C 12.365 49.779 13.216 50.295 14.189 50.44 C 14.376 50.467 14.564 50.482 14.747 50.482 C 15.396 50.482 16.025 50.311 16.587 49.982 L 16.587 70.611 C 16.587 70.674 16.591 70.736 16.595 70.799 L 12.196 70.799 C 11.548 70.799 11.021 71.326 11.021 71.975 C 11.021 72.623 11.548 73.151 12.196 73.151 L 53.126 73.151 L 53.13 73.151 L 82.306 73.151 C 82.955 73.151 83.482 72.623 83.482 71.975 C 83.482 71.326 82.955 70.799 82.306 70.799 L 76.693 70.799 C 76.72 70.643 76.732 70.483 76.732 70.322 L 76.736 44.842 Z M 31.49 70.799 L 23.845 70.799 L 23.845 55.225 L 31.49 55.225 L 31.49 70.799 Z M 46.392 70.611 C 46.392 70.713 46.306 70.799 46.204 70.799 L 33.841 70.799 L 33.841 54.725 C 33.841 53.705 33.013 52.877 31.994 52.877 L 23.341 52.873 C 22.322 52.873 21.494 53.701 21.494 54.721 L 21.494 70.795 L 19.123 70.795 C 19.021 70.795 18.935 70.709 18.935 70.608 L 18.935 48.28 L 32.662 38.163 L 46.392 48.28 L 46.392 70.611 Z M 32.552 38.076 Z M 48.271 46.744 L 33.947 36.185 C 33.181 35.619 32.15 35.619 31.384 36.185 L 17.06 46.744 L 15.525 47.877 C 15.244 48.084 14.892 48.17 14.545 48.119 C 14.193 48.065 13.885 47.881 13.678 47.6 L 13.631 47.537 C 13.197 46.951 13.322 46.123 13.912 45.69 L 32.67 31.866 L 38.373 36.069 C 38.381 36.073 38.389 36.08 38.397 36.084 L 43.557 39.885 C 43.565 39.889 43.572 39.897 43.58 39.901 L 51.428 45.686 C 52.014 46.12 52.139 46.948 51.709 47.534 L 51.666 47.592 C 51.233 48.178 50.404 48.303 49.818 47.874 L 48.283 46.741 L 48.272 46.745 L 48.271 46.744 Z M 74.384 70.318 C 74.384 70.576 74.165 70.795 73.907 70.795 L 53.13 70.795 L 53.127 70.795 L 48.732 70.795 C 48.736 70.732 48.74 70.67 48.74 70.607 L 48.74 49.978 C 50.338 50.912 52.423 50.506 53.545 48.986 L 53.587 48.928 C 54.787 47.299 54.439 44.994 52.81 43.795 L 46.236 38.947 L 57.474 30.662 C 57.482 30.658 57.482 30.654 57.486 30.654 C 57.49 30.654 57.493 30.658 57.497 30.662 L 74.384 43.107 L 74.384 70.318 Z M 76.263 41.576 L 76.259 41.576 L 58.892 28.771 C 58.052 28.15 56.923 28.15 56.083 28.771 L 44.255 37.486 L 41.056 35.127 L 57.478 23.025 C 57.486 23.021 57.49 23.017 57.49 23.017 C 57.494 23.017 57.498 23.021 57.502 23.025 L 80.381 39.892 C 81.205 40.497 81.381 41.661 80.771 42.482 L 80.717 42.556 C 80.111 43.38 78.947 43.556 78.123 42.946 L 76.263 41.576 Z"/>
  <path d="m82.078 74.262c-0.64844 0-1.1758 0.52734-1.1758 1.1758v1.5156h-67.762v-1.5156c0-0.64844-0.52734-1.1758-1.1758-1.1758-0.64844 0-1.1758 0.52734-1.1758 1.1758v2.6914c0 0.64844 0.52734 1.1758 1.1758 1.1758h70.113c0.64844 0 1.1758-0.52734 1.1758-1.1758v-2.6914c0-0.64844-0.52734-1.1758-1.1758-1.1758z"/>
  <path d="m88.035 20.695h-2.6914c-0.64844 0-1.1758 0.52734-1.1758 1.1758 0 0.64844 0.52734 1.1758 1.1758 1.1758h1.5156v47.781h-1.5156c-0.64844 0-1.1758 0.52734-1.1758 1.1758 0 0.64844 0.52734 1.1758 1.1758 1.1758h2.6914c0.64844 0 1.1758-0.52734 1.1758-1.1758v-50.133c0-0.64844-0.52734-1.1758-1.1758-1.1758z"/>
</svg>