<?xml version="1.0" encoding="utf-8"?>
<svg xmlns="http://www.w3.org/2000/svg" version="1.1" viewBox="0.364 0.436 99.365 99.66">
  <path d="m83.332 41.488h-4.3594c-4.1289-6.2344-10.168-10.969-17.211-13.488v-18c-0.007813-5.0586-4.1094-9.1602-9.168-9.168h-5.1602c-5.0586 0.007813-9.1602 4.1094-9.168 9.168v18.031c-7.0273 2.5352-13.059 7.25-17.211 13.457h-4.3867c-4.1992 0.007813-8.2266 1.6797-11.195 4.6484s-4.6367 6.9961-4.6406 11.195v26c0.011719 4.1953 1.6797 8.2188 4.6484 11.184s6.9922 4.6328 11.188 4.6367h15.617c4.957-0.125 9.582-2.543 12.516-6.5469 1.3008-1.5156 3.1992-2.3867 5.1992-2.3867s3.8984 0.87109 5.1992 2.3867c2.9336 4.0039 7.5586 6.4219 12.516 6.5469h15.617c4.1953-0.003906 8.2188-1.6719 11.188-4.6367s4.6367-6.9883 4.6484-11.184v-26c-0.003907-4.1992-1.6719-8.2266-4.6406-11.195s-6.9961-4.6406-11.195-4.6484zm-40.066-31.488c0.003906-2.3008 1.8672-4.1641 4.168-4.168h5.1602c2.3008 0.003907 4.1641 1.8672 4.168 4.168v16.625c-2.2266-0.46094-4.4922-0.70312-6.7617-0.72656-2.2617 0.027343-4.5195 0.27344-6.7344 0.74609zm6.7344 20.898c8.7812-0.015626 17.117 3.8633 22.758 10.59h-45.504c5.6328-6.7305 13.969-10.613 22.746-10.59zm44.168 52.434c-0.015625 5.9766-4.8594 10.812-10.836 10.82h-15.617c-3.4219-0.11328-6.5938-1.8203-8.5703-4.6172-2.2109-2.8008-5.5781-4.4336-9.1445-4.4336s-6.9336 1.6328-9.1445 4.4336c-1.9766 2.7969-5.1484 4.5039-8.5703 4.6172h-15.617c-5.9766-0.007813-10.82-4.8438-10.836-10.82v-26c0.003907-5.9844 4.8516-10.836 10.836-10.844h66.664c5.9805 0.007813 10.828 4.8555 10.836 10.836z"/>
</svg>