<?xml version="1.0" encoding="utf-8"?>
<svg xmlns="http://www.w3.org/2000/svg" version="1.1" viewBox="4.231 4.122 90.683 91.082">
  <path d="m50.031 77.953-1.0312-0.20312c-0.23438-1.8906-0.875-3.7188-1.875-5.3438l0.67188-0.79688c0.25-0.29688 0.25-0.73438-0.015625-1.0312l-1.9844-2.2188c-0.26562-0.29688-0.6875-0.34375-1.0156-0.125l-0.875 0.57812c-1.5156-1.1719-3.25-2.0156-5.1094-2.4531l-0.09375-1.0469c-0.03125-0.39062-0.34375-0.6875-0.73438-0.71875l-2.9844-0.17188c-0.375-0.03125-0.73438 0.25-0.8125 0.625l-0.20312 1.0312c-1.8906 0.23438-3.7188 0.875-5.3438 1.875l-0.8125-0.67188c-0.29688-0.25-0.73438-0.25-1.0312 0.015625l-2.2188 1.9844c-0.29688 0.26562-0.34375 0.6875-0.125 1.0156l0.57812 0.875c-1.1719 1.5-2.0156 3.25-2.4531 5.1094l-1.0469 0.09375c-0.39062 0.03125-0.6875 0.34375-0.71875 0.73438l-0.17188 2.9844c-0.015625 0.39062 0.25 0.73438 0.625 0.8125l1.0312 0.20312c0.23438 1.8906 0.875 3.7188 1.875 5.3438l-0.67188 0.79688c-0.25 0.29688-0.25 0.73438 0.015625 1.0312l1.9844 2.2188c0.26562 0.29688 0.6875 0.34375 1.0156 0.125l0.875-0.57812c1.5 1.1719 3.25 2.0156 5.1094 2.4531l0.09375 1.0469c0.03125 0.39062 0.34375 0.6875 0.73438 0.71875l2.9844 0.17188h0.046875c0.375 0 0.6875-0.26562 0.76562-0.625l0.20312-1.0312c1.8906-0.23438 3.7188-0.875 5.3438-1.875l0.8125 0.67188c0.29688 0.25 0.73438 0.25 1.0312-0.015625l2.2188-1.9844c0.29688-0.26562 0.34375-0.6875 0.125-1.0156l-0.57812-0.875c1.1719-1.5156 2.0156-3.25 2.4531-5.1094l1.0469-0.09375c0.39062-0.03125 0.6875-0.34375 0.71875-0.73438l0.17188-2.9844c0.03125-0.39062-0.23438-0.73438-0.625-0.8125zm-1.0625 3.0312-0.9375 0.078125c-0.34375 0.03125-0.64062 0.28125-0.70312 0.625-0.375 2-1.2812 3.875-2.6094 5.4219-0.23438 0.26562-0.25 0.65625-0.0625 0.9375l0.53125 0.79688-1.2031 1.0781-0.73438-0.60938c-0.26562-0.21875-0.65625-0.25-0.9375-0.046875-1.6875 1.1406-3.6562 1.8438-5.6875 2-0.34375 0.03125-0.64062 0.28125-0.70312 0.625l-0.1875 0.9375-1.625-0.09375-0.078125-0.95312c-0.03125-0.34375-0.28125-0.64062-0.625-0.70312-2-0.39062-3.875-1.2812-5.4375-2.6094-0.26562-0.23438-0.65625-0.25-0.9375-0.0625l-0.79688 0.53125-1.0781-1.2031 0.60938-0.73438c0.21875-0.26562 0.25-0.65625 0.046875-0.9375-1.1406-1.6875-1.8438-3.6562-2-5.6875-0.03125-0.34375-0.28125-0.64062-0.625-0.70312l-0.9375-0.1875 0.09375-1.625 0.9375-0.078125c0.34375-0.03125 0.64062-0.28125 0.70312-0.625 0.375-2 1.2812-3.875 2.6094-5.4219 0.23438-0.26562 0.25-0.65625 0.0625-0.9375l-0.53125-0.79688 1.2031-1.0781 0.73438 0.60938c0.26562 0.23438 0.65625 0.25 0.9375 0.046875 1.6875-1.1406 3.6562-1.8438 5.6875-2 0.34375-0.03125 0.64062-0.28125 0.70312-0.625l0.1875-0.9375 1.625 0.09375 0.078125 0.95312c0.03125 0.34375 0.28125 0.64062 0.625 0.70312 2 0.375 3.875 1.2812 5.4375 2.6094 0.26562 0.23438 0.65625 0.25 0.9375 0.0625l0.79688-0.53125 1.0781 1.2031-0.60938 0.73438c-0.21875 0.26562-0.25 0.65625-0.046875 0.9375 1.1406 1.6875 1.8438 3.6562 2 5.6875 0.03125 0.34375 0.28125 0.64062 0.625 0.70312l0.9375 0.1875z"/>
  <path d="m36.109 71.516c-2.125-0.125-4.1406 0.59375-5.7188 2s-2.5156 3.3438-2.625 5.4688 0.59375 4.1406 2 5.7188 3.3438 2.5156 5.4688 2.625c0.15625 0.015625 0.29688 0.015625 0.45312 0.015625 1.9531 0 3.8125-0.70312 5.2656-2.0156 1.5781-1.4062 2.5156-3.3438 2.625-5.4688s-0.59375-4.1406-2-5.7188c-1.4219-1.5625-3.3594-2.5-5.4688-2.625zm3.7969 12.641c-1.2656 1.125-2.9062 1.7031-4.5938 1.6094s-3.25-0.84375-4.3906-2.1094c-1.125-1.2656-1.7031-2.8906-1.6094-4.5938 0.09375-1.6875 0.84375-3.25 2.1094-4.3906 1.1719-1.0469 2.6719-1.625 4.2344-1.625 0.125 0 0.23438 0 0.35938 0.015625 1.6875 0.09375 3.25 0.84375 4.3906 2.1094 1.125 1.2656 1.7031 2.8906 1.6094 4.5938s-0.84375 3.2656-2.1094 4.3906z"/>
  <path d="m78.453 76.938c0.39062-0.03125 0.6875-0.34375 0.71875-0.73438l0.17188-2.9844c0.015625-0.39062-0.25-0.73438-0.625-0.8125l-1.0312-0.20312c-0.23438-1.8906-0.875-3.7188-1.875-5.3438l0.67188-0.79688c0.25-0.29688 0.25-0.73438-0.015625-1.0312l-1.9844-2.2188c-0.26562-0.29688-0.6875-0.34375-1.0156-0.125l-0.875 0.57812c-1.5-1.1719-3.25-2.0156-5.1094-2.4531l-0.09375-1.0469c-0.03125-0.39062-0.34375-0.6875-0.73438-0.71875l-2.9844-0.17188c-0.39062-0.03125-0.73438 0.25-0.8125 0.625l-0.20312 1.0312c-1.8906 0.23438-3.7188 0.875-5.3438 1.875l-0.8125-0.67188c-0.29688-0.25-0.73438-0.25-1.0312 0.015625l-2.2188 1.9844c-0.29688 0.26562-0.34375 0.6875-0.125 1.0156l0.59375 0.875c-1.1719 1.5-2.0156 3.25-2.4531 5.1094l-1.0469 0.09375c-0.39062 0.03125-0.6875 0.34375-0.71875 0.73438l-0.17188 2.9844c-0.015625 0.39062 0.25 0.73438 0.625 0.8125l1.0312 0.20312c0.23438 1.8906 0.875 3.7188 1.875 5.3438l-0.67188 0.79688c-0.25 0.29688-0.25 0.73438 0.015625 1.0312l1.9844 2.2188c0.26562 0.29688 0.6875 0.34375 1.0156 0.125l0.875-0.57812c1.5156 1.1719 3.25 2.0156 5.1094 2.4531l0.09375 1.0469c0.03125 0.39062 0.34375 0.6875 0.73438 0.71875l2.9844 0.17188h0.046875c0.375 0 0.6875-0.26562 0.76562-0.625l0.20312-1.0312c1.8906-0.23438 3.7188-0.875 5.3438-1.875l0.79688 0.67188c0.29688 0.25 0.73438 0.23438 1.0312-0.015625l2.2188-1.9844c0.29688-0.26562 0.34375-0.6875 0.125-1.0156l-0.57812-0.875c1.1719-1.5 2.0156-3.25 2.4531-5.1094zm-2.4531-0.79688c-0.375 2-1.2812 3.875-2.6094 5.4375-0.23438 0.26562-0.25 0.65625-0.0625 0.9375l0.53125 0.79688-1.2031 1.0781-0.73438-0.60938c-0.26562-0.21875-0.65625-0.25-0.9375-0.046875-1.6875 1.1406-3.6562 1.8438-5.6875 2-0.34375 0.03125-0.64062 0.28125-0.70312 0.625l-0.1875 0.92188-1.625-0.09375-0.078125-0.95312c-0.03125-0.34375-0.28125-0.64062-0.625-0.70312-2-0.375-3.875-1.2812-5.4375-2.6094-0.26562-0.23438-0.65625-0.25-0.9375-0.0625l-0.79688 0.53125-1.0781-1.2031 0.60938-0.71875c0.21875-0.26562 0.25-0.65625 0.046875-0.9375-1.1406-1.6875-1.8438-3.6562-2-5.6875-0.03125-0.34375-0.28125-0.64062-0.625-0.70312l-0.9375-0.1875 0.09375-1.625 0.9375-0.078125c0.34375-0.03125 0.64062-0.28125 0.70312-0.625 0.375-2 1.2812-3.875 2.6094-5.4219 0.23438-0.26562 0.25-0.65625 0.0625-0.9375l-0.53125-0.79688 1.2031-1.0781 0.73438 0.60938c0.26562 0.21875 0.65625 0.25 0.9375 0.046875 1.6875-1.1406 3.6562-1.8438 5.6875-2 0.34375-0.03125 0.64062-0.28125 0.70312-0.625l0.1875-0.92188 1.625 0.09375 0.078125 0.9375c0.03125 0.34375 0.28125 0.64062 0.625 0.70312 2 0.39062 3.875 1.2812 5.4375 2.6094 0.26562 0.23438 0.65625 0.25 0.9375 0.0625l0.79688-0.53125 1.0781 1.2031-0.60938 0.73438c-0.21875 0.26562-0.25 0.65625-0.046875 0.9375 1.1406 1.6875 1.8438 3.6562 2 5.6875 0.03125 0.34375 0.28125 0.64062 0.625 0.70312l0.9375 0.1875-0.09375 1.625-0.9375 0.078125c-0.34375 0.015625-0.625 0.26562-0.70312 0.60938z"/>
  <path d="m64.781 65.969c-4.3906-0.26562-8.1094 3.1094-8.3438 7.4688-0.125 2.1094 0.59375 4.1406 2 5.7188s3.3438 2.5156 5.4688 2.625c0.15625 0.015625 0.29688 0.015625 0.45312 0.015625 1.9531 0 3.8125-0.70312 5.2656-2.0156 1.5781-1.4062 2.5156-3.3438 2.625-5.4688 0.23438-4.3594-3.1094-8.1094-7.4688-8.3438zm3.7969 12.641c-1.2656 1.125-2.9062 1.7031-4.5938 1.6094s-3.25-0.84375-4.3906-2.1094c-1.125-1.2656-1.7031-2.8906-1.6094-4.5938 0.1875-3.375 3-6 6.3438-6 0.125 0 0.23438 0 0.35938 0.015625 3.5 0.1875 6.1875 3.2031 6 6.7031-0.09375 1.6875-0.84375 3.25-2.1094 4.375z"/>
  <path d="m92.188 5.5625h-84.375c-1.2969 0-2.3438 1.0469-2.3438 2.3438v76.031c0 1.2969 1.0469 2.3438 2.3438 2.3438h10.203c0.4375 0 0.78125-0.34375 0.78125-0.78125s-0.34375-0.78125-0.78125-0.78125h-10.203c-0.4375 0-0.78125-0.34375-0.78125-0.78125v-64.297h85.938v64.312c0 0.4375-0.34375 0.78125-0.78125 0.78125h-13.078c-0.4375 0-0.78125 0.34375-0.78125 0.78125s0.34375 0.78125 0.78125 0.78125h13.078c1.2969 0 2.3438-1.0469 2.3438-2.3438v-76.031c0-1.2969-1.0469-2.3594-2.3438-2.3594zm-85.156 12.5v-10.156c0-0.4375 0.34375-0.78125 0.78125-0.78125h58.984l-3.125 10.938zm58.25 0 3.125-10.938h1.5625l-3.125 10.938zm27.688 0h-24.5l3.125-10.938h20.594c0.4375 0 0.78125 0.34375 0.78125 0.78125z"/>
  <path d="m16.25 10.156c-1.3438 0-2.4531 1.0938-2.4531 2.4531s1.0938 2.4531 2.4531 2.4531 2.4531-1.0938 2.4531-2.4531-1.1094-2.4531-2.4531-2.4531zm0 3.3281c-0.48438 0-0.89062-0.39062-0.89062-0.89062s0.40625-0.875 0.89062-0.875 0.89062 0.39062 0.89062 0.89062-0.40625 0.875-0.89062 0.875z"/>
  <path d="m22.922 10.156c-1.3438 0-2.4531 1.0938-2.4531 2.4531s1.0938 2.4531 2.4531 2.4531 2.4531-1.0938 2.4531-2.4531-1.1094-2.4531-2.4531-2.4531zm0 3.3281c-0.48438 0-0.89062-0.39062-0.89062-0.89062s0.39062-0.89062 0.89062-0.89062 0.89062 0.39062 0.89062 0.89062-0.40625 0.89062-0.89062 0.89062z"/>
  <path d="m29.578 10.156c-1.3438 0-2.4531 1.0938-2.4531 2.4531s1.0938 2.4531 2.4531 2.4531 2.4531-1.0938 2.4531-2.4531-1.0938-2.4531-2.4531-2.4531zm0 3.3281c-0.48438 0-0.89062-0.39062-0.89062-0.89062s0.39062-0.89062 0.89062-0.89062 0.89062 0.39062 0.89062 0.89062-0.39062 0.89062-0.89062 0.89062z"/>
  <path d="m88.594 10.453h-13.906c-0.4375 0-0.78125 0.34375-0.78125 0.78125s0.34375 0.78125 0.78125 0.78125h13.906c0.4375 0 0.78125-0.34375 0.78125-0.78125s-0.35938-0.78125-0.78125-0.78125z"/>
  <path d="m88.594 13.188h-13.906c-0.4375 0-0.78125 0.34375-0.78125 0.78125s0.34375 0.78125 0.78125 0.78125h13.906c0.4375 0 0.78125-0.34375 0.78125-0.78125s-0.35938-0.78125-0.78125-0.78125z"/>
  <path d="m86.547 45.938v-15.5c0-1.4219-1.1562-2.5625-2.5625-2.5625h-67.953c-1.4219 0-2.5625 1.1562-2.5625 2.5625v15.5c0 1.4219 1.1562 2.5625 2.5625 2.5625h67.938c1.4219 0.015625 2.5781-1.1406 2.5781-2.5625zm-54.016 1.0156h-16.5c-0.54688 0-1-0.45312-1-1v-15.5c0-0.5625 0.45312-1 1-1h16.5zm1.5625-17.516h49.875c0.54688 0 1 0.45312 1 1v15.5c0 0.54688-0.45312 1-1 1h-49.875z"/>
  <path d="m18.016 44.734c0.20312 0 0.40625-0.078125 0.54688-0.23438l2.875-2.875c0.95312 0.71875 2.0938 1.125 3.3125 1.125 1.4844 0 2.875-0.57812 3.9219-1.625s1.625-2.4375 1.625-3.9219-0.57812-2.875-1.625-3.9219c-2.0938-2.0938-5.75-2.0938-7.8438 0-1.0469 1.0469-1.625 2.4375-1.625 3.9219 0 1.2188 0.40625 2.3594 1.125 3.3125l-2.875 2.875c-0.3125 0.3125-0.3125 0.79688 0 1.1094 0.17188 0.15625 0.375 0.23438 0.5625 0.23438zm3.9375-10.344c0.75-0.75 1.75-1.1719 2.8125-1.1719s2.0625 0.42188 2.8125 1.1719 1.1719 1.75 1.1719 2.8125-0.42188 2.0625-1.1719 2.8125c-1.5 1.5-4.125 1.5-5.6406 0-0.75-0.75-1.1719-1.75-1.1719-2.8125 0.015625-1.0625 0.42188-2.0625 1.1875-2.8125z"/>
  <path d="m42.188 42.688h-4.7969c-0.4375 0-0.78125 0.34375-0.78125 0.78125s0.34375 0.78125 0.78125 0.78125h4.7969c0.4375 0 0.78125-0.34375 0.78125-0.78125s-0.34375-0.78125-0.78125-0.78125z"/>
  <path d="m50.078 42.688h-4.7969c-0.4375 0-0.78125 0.34375-0.78125 0.78125s0.34375 0.78125 0.78125 0.78125h4.7969c0.4375 0 0.78125-0.34375 0.78125-0.78125s-0.34375-0.78125-0.78125-0.78125z"/>
  <path d="m57.969 42.688h-4.7969c-0.4375 0-0.78125 0.34375-0.78125 0.78125s0.34375 0.78125 0.78125 0.78125h4.7969c0.4375 0 0.78125-0.34375 0.78125-0.78125s-0.34375-0.78125-0.78125-0.78125z"/>
  <path d="m65.859 42.688h-4.7969c-0.4375 0-0.78125 0.34375-0.78125 0.78125s0.34375 0.78125 0.78125 0.78125h4.7969c0.4375 0 0.78125-0.34375 0.78125-0.78125s-0.34375-0.78125-0.78125-0.78125z"/>
  <path d="m73.75 42.688h-4.7969c-0.4375 0-0.78125 0.34375-0.78125 0.78125s0.34375 0.78125 0.78125 0.78125h4.7969c0.4375 0 0.78125-0.34375 0.78125-0.78125s-0.35938-0.78125-0.78125-0.78125z"/>
  <path d="m81.641 42.688h-4.7969c-0.4375 0-0.78125 0.34375-0.78125 0.78125s0.34375 0.78125 0.78125 0.78125h4.7969c0.4375 0 0.78125-0.34375 0.78125-0.78125s-0.35938-0.78125-0.78125-0.78125z"/>
</svg>