<?xml version="1.0" encoding="UTF-8"?><svg id="uuid-95053a8b-c788-4cb1-ac67-3204ea12e927" xmlns="http://www.w3.org/2000/svg" viewBox="0 0 239.08 52.81">
<title>Safaricom logo - Brandlogos.net</title><g id="uuid-1bd9d7e5-d757-406f-bc2c-d15d7d15d917"><g id="uuid-626d280c-07ac-4254-b0a1-4e05bcaa3c5b"><path id="uuid-d6dc7435-a2e1-444f-afec-0169f1893d4c" d="M82.78,2.65c-3.67-6.35-25.06-.87-47.77,12.25C12.3,28.02-3.14,43.8.54,50.16c3.16,5.46,19.4,2.17,38.32-7.18.84-.46.79-1.46-.32-1.1-11.66,4.3-21.39,4.56-23.91,0-3.35-6.05,7.25-18.31,23.67-27.37,16.42-9.07,32.44-11.52,35.79-5.47,1.53,2.77.13,6.84-3.41,11.32l-.05.07c-1.31,1.62-.36,2.11.58,1.32,9.05-8.02,13.77-15.27,11.56-19.09" style="fill:#de1e23;"/><path id="uuid-aee5a4dc-322e-4c4f-a1d4-6ceb97e31e95" d="M48.72,44.5c-2.02-.55-3.68-1.29-4.94-2.22l2.29-5.18c1.35.85,2.79,1.51,4.31,1.96,1.52.45,3.04.68,4.57.68s2.76-.22,3.59-.64c.82-.43,1.24-1.04,1.24-1.81,0-.7-.37-1.28-1.12-1.74-.76-.45-2.17-.9-4.25-1.33-2.62-.53-4.66-1.17-6.11-1.93-1.46-.77-2.47-1.67-3.06-2.7-.58-1.04-.87-2.3-.87-3.78,0-1.69.48-3.21,1.44-4.57.96-1.36,2.31-2.43,4.05-3.19s3.72-1.15,5.96-1.15c2,0,3.94.28,5.82.83,1.89.56,3.35,1.29,4.42,2.2l-2.26,5.18c-1.22-.86-2.51-1.51-3.85-1.97-1.35-.45-2.7-.68-4.05-.68s-2.39.26-3.19.76c-.81.51-1.21,1.19-1.21,2.05,0,.47.14.85.43,1.17.29.31.82.62,1.59.92.78.3,1.95.61,3.51.95,2.52.55,4.5,1.2,5.94,1.96,1.44.77,2.46,1.67,3.05,2.69.6,1.03.9,2.25.9,3.68,0,2.7-1.06,4.83-3.16,6.36-2.1,1.55-5.06,2.32-8.88,2.32-2.07,0-4.13-.28-6.15-.82" style="fill:#3aa335;"/><path id="uuid-2be07cf2-1bf1-44f3-ba3e-e369ded513b6" d="M91.44,25.19v19.78h-6.94v-2.68c-.56.93-1.4,1.67-2.48,2.2-1.09.53-2.29.8-3.58.8-1.69,0-3.19-.42-4.52-1.25-1.32-.83-2.35-2.02-3.1-3.56-.73-1.54-1.11-3.33-1.11-5.35s.38-3.87,1.14-5.45c.75-1.59,1.79-2.82,3.11-3.7,1.33-.88,2.82-1.32,4.48-1.32,1.29,0,2.48.28,3.56.84,1.08.56,1.92,1.31,2.51,2.24v-2.53h6.94ZM83.49,38.74c.68-.86,1.01-2.09,1.01-3.7s-.33-2.89-1.01-3.76c-.67-.87-1.64-1.31-2.88-1.31s-2.18.45-2.88,1.34c-.7.9-1.05,2.16-1.05,3.8s.33,2.79,1.01,3.64c.68.84,1.65,1.26,2.92,1.26s2.21-.43,2.88-1.28" style="fill:#3aa335;"/><path id="uuid-1f46a879-02a8-4398-9612-5ae778196812" d="M96.05,25.19v-.55c0-2.68.7-4.76,2.08-6.27,1.39-1.51,3.41-2.27,6.06-2.27,1.51,0,2.73.19,3.66.55v5.42c-.76-.18-1.38-.28-1.86-.28-.83,0-1.52.24-2.07.72-.54.48-.82,1.21-.82,2.2v.47h3.85v5.18h-3.85v14.6h-7.05v-19.78" style="fill:#3aa335;"/><path id="uuid-9125e464-7e3e-4d94-ba33-b5f7ebe13b32" d="M130.83,25.19v19.78h-6.93v-2.68c-.57.93-1.4,1.67-2.49,2.2-1.08.53-2.28.8-3.58.8-1.69,0-3.19-.42-4.52-1.25-1.32-.83-2.35-2.02-3.1-3.56-.74-1.54-1.1-3.33-1.1-5.35s.37-3.87,1.12-5.45c.75-1.59,1.79-2.82,3.11-3.7,1.33-.88,2.82-1.32,4.48-1.32,1.3,0,2.49.28,3.56.84,1.08.56,1.92,1.31,2.51,2.24v-2.53h6.93ZM122.89,38.74c.68-.86,1.01-2.09,1.01-3.7s-.33-2.89-1.01-3.76c-.67-.87-1.63-1.31-2.88-1.31s-2.18.45-2.88,1.34c-.7.9-1.05,2.16-1.05,3.8s.34,2.79,1.02,3.64c.67.84,1.65,1.26,2.92,1.26s2.21-.43,2.88-1.28" style="fill:#3aa335;"/><path id="uuid-8ef2cf4b-ec33-465e-9eca-1a88c31170aa" d="M149.69,25.15v6.43c-1.11-.52-2.18-.78-3.22-.78-2.95,0-4.42,1.42-4.42,4.24v9.93h-7.02v-14.09c0-2.13-.1-4.02-.31-5.69h6.59l.43,3.31c.46-1.22,1.21-2.16,2.25-2.81,1.03-.64,2.19-.97,3.48-.97.96,0,1.69.15,2.21.43" style="fill:#3aa335;"/><path id="uuid-75a3c1ac-06c4-4afe-a742-05a8914676b3" d="M151.78,44.96h7.05v-19.78h-7.05v19.78Z" style="fill:#3aa335;"/><path id="uuid-4fd3c890-394d-4c99-b390-f76d31a57924" d="M164.98,42.55c-1.89-1.82-2.84-4.29-2.84-7.43,0-2.08.45-3.91,1.37-5.49.93-1.58,2.21-2.81,3.88-3.68,1.66-.87,3.58-1.3,5.76-1.3,1.45,0,2.88.21,4.29.64,1.4.43,2.51,1.01,3.34,1.74l-1.79,4.86c-.7-.57-1.52-1.02-2.45-1.36-.94-.34-1.83-.51-2.69-.51-1.45,0-2.57.42-3.35,1.24-.78.83-1.17,2.07-1.17,3.7s.39,2.92,1.17,3.77c.78.84,1.91,1.26,3.39,1.26.86,0,1.74-.17,2.67-.51.92-.33,1.73-.79,2.43-1.36l1.79,4.79c-.85.76-1.99,1.34-3.4,1.76-1.42.42-2.93.62-4.54.62-3.35,0-5.97-.91-7.86-2.72" style="fill:#3aa335;"/><path id="uuid-f28a7872-0289-47fb-822b-c898e7a128c7" d="M187.29,44.03c-1.64-.83-2.9-2.03-3.78-3.58-.89-1.56-1.32-3.39-1.32-5.49s.44-3.93,1.32-5.49c.89-1.56,2.15-2.75,3.78-3.58,1.64-.83,3.56-1.25,5.77-1.25s4.08.42,5.7,1.27c1.62.84,2.88,2.04,3.76,3.58.89,1.54,1.32,3.36,1.32,5.47s-.44,3.93-1.32,5.47c-.88,1.54-2.13,2.74-3.76,3.58-1.62.84-3.52,1.27-5.7,1.27s-4.13-.42-5.77-1.25M196.87,34.96c0-1.71-.32-2.97-.96-3.79-.63-.82-1.59-1.22-2.85-1.22s-2.28.41-2.93,1.22c-.65.82-.97,2.08-.97,3.79s.33,3.02.97,3.84c.65.82,1.62,1.23,2.93,1.23,2.54,0,3.82-1.69,3.82-5.07" style="fill:#3aa335;"/><path id="uuid-ca2a016a-2a9f-440f-b954-b126109b2f5c" d="M237.43,26.75c1.1,1.4,1.65,3.54,1.65,6.42v11.8h-7.04v-11.6c0-1.17-.18-2.02-.53-2.53-.35-.52-.94-.78-1.77-.78-.99,0-1.75.37-2.3,1.09-.55.73-.82,1.74-.82,3.07v10.74h-7.05v-11.6c0-1.17-.19-2.02-.55-2.53-.36-.52-.95-.78-1.75-.78-.98,0-1.75.37-2.28,1.09-.54.73-.8,1.74-.8,3.07v10.74h-7.06v-14.09c0-2.13-.09-4.03-.3-5.68h6.62l.35,2.77c.6-1.07,1.44-1.89,2.51-2.46,1.08-.56,2.32-.85,3.72-.85,2.83,0,4.76,1.19,5.76,3.58.71-1.09,1.64-1.96,2.79-2.61,1.16-.65,2.41-.97,3.76-.97,2.28,0,3.97.7,5.08,2.1" style="fill:#3aa335;"/><path id="uuid-2771a36f-ed02-4deb-985e-7e6086114ce8" d="M151.78,21.83h7.05v-6.34h-7.05v6.34Z" style="fill:#3aa335;"/></g></g></svg>